<svg xmlns="http://www.w3.org/2000/svg" width="109" height="39" fill="#f99d1c" xmlns:v="https://vecta.io/nano"><path d="M52.936 0a5.54 5.54 0 0 1 3.097.932 5.6 5.6 0 0 1 2.061 2.508 5.64 5.64 0 0 1 .33 3.238 5.62 5.62 0 0 1-1.513 2.877c-.776.787-1.766 1.325-2.845 1.546a5.53 5.53 0 0 1-3.219-.306A5.57 5.57 0 0 1 48.34 8.74c-.615-.92-.946-2.002-.951-3.111a5.65 5.65 0 0 1 1.622-3.964A5.57 5.57 0 0 1 52.936 0zM13.699 38.67H0v-4.473h1.014c.666 0 .896-.38.896-.999V19.383c0-.626-.23-.999-.896-.999H0v-4.563h12.351v3.869c1.762-2.498 4.065-4.391 7.738-4.391 4.865 0 6.494 1.961 7.057 4.861a9.19 9.19 0 0 1 3.362-3.55c1.418-.856 3.041-1.309 4.695-1.311 6.168 0 7.012 2.982 7.012 7.411v12.503c0 .619.274.999 1.037.999h.785v4.473H30.574v-4.473h.363c.622 0 .896-.38.896-.999V21.851c0-2.05-.696-2.706-2.118-2.706-1.881 0-2.495 1.566-2.495 3.981v10.042c0 .664.281 1.044.903 1.044h.555v4.473H15.587v-4.473h.378c.6 0 .881-.38.881-.999V21.851c0-2.05-.696-2.706-2.118-2.706-1.881 0-2.488 1.566-2.488 3.981v10.042c0 .664.237 1.044.896 1.044h.563v4.458zm34.133-19.286c0-.626-.23-.999-.896-.999h-1.029v-4.563h12.255v19.384c0 .663.237 1.044.896 1.044h.918v4.473H45.907V34.25h1.014c.666 0 .896-.38.896-.999l.015-13.867zM75.81 38.67H62.112v-4.473h1.014c.659 0 .896-.38.896-.999V19.383c0-.626-.237-.999-.896-.999h-1.014v-4.563h12.24v3.914c.898-1.369 2.12-2.491 3.556-3.266s3.041-1.177 4.671-1.17c5.709 0 6.946 2.982 6.946 7.411v12.503c0 .619.23.999.985.999h.829v4.473H77.691v-4.473h.563c.607 0 .896-.38.896-.999V21.851c0-2.05-.74-2.706-2.118-2.706s-2.681 1.088-2.681 3.504v10.52a.93.93 0 0 0 .252.768.92.92 0 0 0 .346.225c.131.048.271.065.409.05h.452v4.458zm15.271-24.847l3.643-.142.437-5.651h9.248v5.793h4.361v4.66h-4.361V29.74c0 2.937.563 3.892 3.769 3.892H109v5.04a54.23 54.23 0 0 1-6.124.328c-5.842 0-8.796-1.827-8.796-6.71V18.482h-2.962l-.037-4.66z"/></svg>