<svg xmlns="http://www.w3.org/2000/svg" viewBox="0 0 147.33 163.22"><title>Asset 4</title><g style="isolation:isolate"><g id="Layer_2" data-name="Layer 2"><g id="Layer_1-2" data-name="Layer 1"><path d="M10.3,162.92l-4.46-7.79L3,158.45v4.46H0V146.43H3V154l6.58-7.6h3.65l-5.3,6.23,5.91,10.25Z" style="fill:#231f20"/><path d="M25.55,162.92l-1.07-3.16H17.92l-1.07,3.16h-3l5.79-16.48H22.9l5.79,16.48ZM21.2,150.11l-2.35,7h4.7Z" style="fill:#231f20"/><path d="M40,162.92l-2.74-6.23H33.64v6.23h-3V146.43h7c3.93,0,5.72,2.47,5.72,5.12a4.75,4.75,0,0,1-3,4.63l3,6.74Zm-2.47-13.86h-4V154h4c1.7,0,2.67-.88,2.67-2.44A2.52,2.52,0,0,0,37.57,149.06Z" style="fill:#231f20"/><path d="M52.28,156.59v6.32h-3v-6.32l-5.72-10.16h3.25l4.07,7.11,4.07-7.11H58Z" style="fill:#231f20"/><path d="M68.48,162.92l-1.07-3.16H60.86l-1.07,3.16h-3l5.79-16.48h3.28l5.79,16.48Zm-4.35-12.81-2.35,7h4.7Z" style="fill:#231f20"/><path d="M89,161.45a8.28,8.28,0,0,1-10.14.07,5.26,5.26,0,0,1-1.72-3.84h3.07a2.9,2.9,0,0,0,.86,2,3.93,3.93,0,0,0,2.77.88,4,4,0,0,0,2.86-.88,2,2,0,0,0,.65-1.58c0-1.21-.93-1.77-2-2s-2.56-.26-3.65-.44c-2.28-.37-4.18-1.86-4.18-4.6A4.56,4.56,0,0,1,79,147.88a7,7,0,0,1,4.84-1.74,6.8,6.8,0,0,1,4.6,1.6,5,5,0,0,1,1.67,3.51H87.08a2.68,2.68,0,0,0-.72-1.63,3.8,3.8,0,0,0-2.51-.88,3.72,3.72,0,0,0-2.67.91,1.91,1.91,0,0,0-.56,1.39,1.75,1.75,0,0,0,1.67,1.79c1,.16,2.51.28,3.58.42,2.46.35,4.53,2,4.53,4.77A4.64,4.64,0,0,1,89,161.45Z" style="fill:#231f20"/><path d="M99.56,157H96.08v5.9h-3V146.43h6.46c3.79,0,5.81,2.12,5.81,5.28S103.35,157,99.56,157Zm-.12-8H96.08v5.32h3.37c2,0,2.91-1.07,2.91-2.65S101.45,149.06,99.45,149.06Z" style="fill:#231f20"/><path d="M116.28,162.92l-1.07-3.16h-6.56l-1.07,3.16h-3l5.79-16.48h3.28l5.79,16.48Zm-4.35-12.81-2.35,7h4.7Z" style="fill:#231f20"/><path d="M131.43,161.27a6.63,6.63,0,0,1-4.72,2,6.45,6.45,0,0,1-4.67-1.84c-1.79-1.79-2-4-2-6.7s.26-4.91,2-6.7a6.47,6.47,0,0,1,4.67-1.86,6.58,6.58,0,0,1,4.72,1.91,6,6,0,0,1,1.58,3.58h-3.07a3,3,0,0,0-.74-1.74,3.12,3.12,0,0,0-2.49-1,3.48,3.48,0,0,0-2.53,1.09c-1.14,1.19-1.14,3.23-1.14,4.74s0,3.56,1.14,4.74a3.48,3.48,0,0,0,2.53,1.09,3.14,3.14,0,0,0,2.49-1,3.26,3.26,0,0,0,.74-1.81H133A6.06,6.06,0,0,1,131.43,161.27Z" style="fill:#231f20"/><path d="M135.59,162.92V146.43h11.74v2.72h-8.74V153h7.7v2.7h-7.7v4.51h8.74v2.72Z" style="fill:#231f20"/><circle cx="55.49" cy="114.26" r="29.03" transform="translate(-17.43 10.25) rotate(-9.13)" style="fill:#a9d7ae;mix-blend-mode:multiply"/><circle cx="98.55" cy="46.75" r="46.75" transform="translate(-4.35 10.58) rotate(-6.01)" style="fill:#fab49b;mix-blend-mode:multiply"/><circle cx="52.7" cy="55.53" r="50.67" transform="translate(-2.73 2.73) rotate(-2.89)" style="fill:#fff197;mix-blend-mode:multiply"/><circle cx="107.02" cy="105.01" r="38.28" transform="translate(-19.85 25.11) rotate(-12.25)" style="fill:#95d1ec;mix-blend-mode:multiply"/><path d="M121.23,109.31l-31.61-34,30.21-30.9H105.34L81.61,70V49.09h8.12V41.76H26.1v7.33H69.91v17C53.58,53.49,26.5,57.73,29.64,76.32S64.85,88.75,64.85,88.75L59.48,76.6C45,82.25,29.64,64.28,44.17,61.66S69.91,83.47,69.91,83.47v31.77L81.61,110V83.47l.78-.79,27.35,28Z" style="fill:#231f20"/><path d="M125.84,43a5.52,5.52,0,1,1,5.52-5.52A5.53,5.53,0,0,1,125.84,43Zm0-10.16a4.64,4.64,0,1,0,4.64,4.64A4.64,4.64,0,0,0,125.84,32.84Z" style="fill:#231f20"/><path d="M127.06,40.21l-.9-2H125v2h-1V34.79h2.29a1.68,1.68,0,0,1,1.88,1.68,1.56,1.56,0,0,1-1,1.52l1,2.22Zm-.81-4.56h-1.3v1.62h1.31c.56,0,.88-.29.88-.8A.83.83,0,0,0,126.25,35.66Z" style="fill:#231f20"/></g></g></g></svg>