<svg xmlns="http://www.w3.org/2000/svg" xmlns:xlink="http://www.w3.org/1999/xlink" width="500" zoomAndPan="magnify" viewBox="0 0 375 374.999991" height="500" preserveAspectRatio="xMidYMid meet" version="1.2"><defs><clipPath id="001e73c890"><path d="M 80.4375 37.5 L 294.9375 37.5 L 294.9375 337.5 L 80.4375 337.5 Z M 80.4375 37.5 "/></clipPath><clipPath id="161ae42c3a"><path d="M 139 152 L 178 152 L 178 166.359375 L 139 166.359375 Z M 139 152 "/></clipPath><clipPath id="91706f7ed9"><path d="M 127 146 L 139 146 L 139 166.359375 L 127 166.359375 Z M 127 146 "/></clipPath><clipPath id="1ae1c34179"><path d="M 183 111.609375 L 192 111.609375 L 192 122 L 183 122 Z M 183 111.609375 "/></clipPath><clipPath id="f6b64a97d3"><path d="M 196 152 L 235 152 L 235 166.359375 L 196 166.359375 Z M 196 152 "/></clipPath><clipPath id="a714271993"><path d="M 236 140 L 247.746094 140 L 247.746094 147 L 236 147 Z M 236 140 "/></clipPath><clipPath id="db139f77b1"><path d="M 236 146 L 247.746094 146 L 247.746094 166.359375 L 236 166.359375 Z M 236 146 "/></clipPath><clipPath id="26dfef1541"><path d="M 179 129 L 196 129 L 196 166.359375 L 179 166.359375 Z M 179 129 "/></clipPath></defs><g id="0540c619d4"><g clip-rule="nonzero" clip-path="url(#001e73c890)"><path style=" stroke:none;fill-rule:nonzero;fill:#ffde59;fill-opacity:1;" d="M 187.492188 223.425781 C 143.867188 223.425781 108.507812 188.058594 108.507812 144.441406 C 108.507812 100.820312 143.867188 65.457031 187.492188 65.457031 C 231.109375 65.457031 266.472656 100.820312 266.472656 144.441406 C 266.472656 188.058594 231.109375 223.425781 187.492188 223.425781 Z M 187.492188 37.5 C 128.429688 37.5 80.550781 85.378906 80.550781 144.441406 C 80.550781 203.503906 187.492188 337.5 187.492188 337.5 C 187.492188 337.5 294.429688 203.503906 294.429688 144.441406 C 294.429688 85.378906 246.550781 37.5 187.492188 37.5 "/></g><path style=" stroke:none;fill-rule:nonzero;fill:#000000;fill-opacity:1;" d="M 139.785156 151.945312 L 177.941406 151.945312 L 177.941406 147.789062 L 139.785156 147.789062 Z M 140.1875 148.191406 L 177.539062 148.191406 L 177.539062 151.546875 L 140.1875 151.546875 Z M 140.1875 148.191406 "/><g clip-rule="nonzero" clip-path="url(#161ae42c3a)"><path style=" stroke:none;fill-rule:nonzero;fill:#000000;fill-opacity:1;" d="M 139.785156 166.332031 L 177.941406 166.332031 L 177.941406 152.921875 L 139.785156 152.921875 Z M 145.148438 165.933594 L 145.148438 163.003906 C 145.148438 161.96875 145.992188 161.125 147.027344 161.125 C 148.066406 161.125 148.910156 161.96875 148.910156 163.003906 L 148.910156 165.933594 Z M 157.074219 165.933594 L 157.074219 163.003906 C 157.074219 161.96875 157.917969 161.125 158.957031 161.125 C 159.992188 161.125 160.835938 161.96875 160.835938 163.003906 L 160.835938 165.933594 Z M 168.894531 165.933594 L 168.894531 163.003906 C 168.894531 161.96875 169.738281 161.125 170.773438 161.125 C 171.8125 161.125 172.65625 161.96875 172.65625 163.003906 L 172.65625 165.933594 Z M 140.1875 153.320312 L 177.539062 153.320312 L 177.539062 165.933594 L 173.058594 165.933594 L 173.058594 163.003906 C 173.058594 161.746094 172.035156 160.726562 170.773438 160.726562 C 169.515625 160.726562 168.492188 161.746094 168.492188 163.003906 L 168.492188 165.933594 L 161.238281 165.933594 L 161.238281 163.003906 C 161.238281 161.746094 160.214844 160.726562 158.957031 160.726562 C 157.695312 160.726562 156.671875 161.746094 156.671875 163.003906 L 156.671875 165.933594 L 149.3125 165.933594 L 149.3125 163.003906 C 149.3125 161.746094 148.289062 160.726562 147.027344 160.726562 C 145.769531 160.726562 144.746094 161.746094 144.746094 163.003906 L 144.746094 165.933594 L 140.1875 165.933594 Z M 140.1875 153.320312 "/></g><path style=" stroke:none;fill-rule:nonzero;fill:#000000;fill-opacity:1;" d="M 147.835938 141.925781 L 142.785156 141.925781 L 140.984375 146.722656 L 149.839844 146.722656 Z M 143.066406 142.324219 L 147.570312 142.324219 L 149.238281 146.324219 L 141.5625 146.324219 Z M 143.066406 142.324219 "/><path style=" stroke:none;fill-rule:nonzero;fill:#000000;fill-opacity:1;" d="M 130.027344 140.550781 L 127.179688 146.722656 L 131.429688 146.722656 L 133.097656 145.234375 L 134.765625 146.722656 L 138.542969 146.722656 L 135.894531 140.550781 Z M 134.917969 146.324219 L 133.097656 144.699219 L 131.273438 146.324219 L 127.804688 146.324219 L 130.285156 140.949219 L 135.628906 140.949219 L 137.9375 146.324219 Z M 134.917969 146.324219 "/><g clip-rule="nonzero" clip-path="url(#91706f7ed9)"><path style=" stroke:none;fill-rule:nonzero;fill:#000000;fill-opacity:1;" d="M 134.582031 146.875 L 131.519531 146.875 L 131.519531 147.789062 L 127.292969 147.789062 L 127.292969 166.332031 L 138.441406 166.332031 L 138.441406 147.789062 L 134.582031 147.789062 Z M 131.917969 147.273438 L 134.183594 147.273438 L 134.183594 149.164062 L 131.917969 149.164062 Z M 130.46875 165.933594 C 130.445312 165.933594 130.425781 165.914062 130.425781 165.894531 L 130.425781 163.585938 C 130.425781 162.230469 131.535156 161.125 132.894531 161.125 C 134.253906 161.125 135.359375 162.230469 135.359375 163.585938 L 135.359375 165.894531 C 135.359375 165.914062 135.34375 165.933594 135.320312 165.933594 Z M 138.039062 148.191406 L 138.039062 165.933594 L 135.753906 165.933594 C 135.753906 165.921875 135.761719 165.90625 135.761719 165.894531 L 135.761719 163.585938 C 135.761719 162.011719 134.476562 160.726562 132.894531 160.726562 C 131.3125 160.726562 130.027344 162.011719 130.027344 163.585938 L 130.027344 165.894531 C 130.027344 165.90625 130.03125 165.921875 130.035156 165.933594 L 127.691406 165.933594 L 127.691406 148.191406 L 131.519531 148.191406 L 131.519531 149.566406 L 134.582031 149.566406 L 134.582031 148.191406 Z M 138.039062 148.191406 "/></g><path style=" stroke:none;fill-rule:nonzero;fill:#000000;fill-opacity:1;" d="M 136.050781 138.078125 L 135.472656 138.078125 L 135.472656 136.472656 L 135.070312 136.472656 L 135.070312 138.078125 L 133.296875 138.078125 L 133.296875 134.992188 L 132.894531 134.992188 L 132.894531 138.078125 L 131.179688 138.078125 C 131.199219 137.875 131.195312 137.449219 131.167969 136.46875 L 130.769531 136.480469 C 130.789062 137.179688 130.796875 137.964844 130.777344 138.070312 L 130.800781 138.078125 L 130.417969 138.078125 L 130.417969 139.757812 L 136.050781 139.757812 Z M 135.652344 139.359375 L 130.816406 139.359375 L 130.816406 138.476562 L 135.652344 138.476562 Z M 135.652344 139.359375 "/><path style=" stroke:none;fill-rule:nonzero;fill:#000000;fill-opacity:1;" d="M 147.8125 139.40625 L 147.8125 138.734375 L 147.410156 138.734375 L 147.410156 139.359375 L 145.914062 139.359375 L 145.914062 137.328125 L 145.511719 137.328125 L 145.511719 139.359375 L 143.953125 139.359375 L 143.953125 138.734375 L 143.550781 138.734375 L 143.550781 141.410156 L 147.8125 141.410156 Z M 147.410156 141.007812 L 143.953125 141.007812 L 143.953125 139.757812 L 147.410156 139.757812 Z M 147.410156 141.007812 "/><path style=" stroke:none;fill-rule:nonzero;fill:#000000;fill-opacity:1;" d="M 176.289062 156.863281 L 174.714844 156.863281 L 174.714844 155.566406 C 174.714844 155.085938 174.328125 154.699219 173.890625 154.699219 C 173.886719 154.699219 173.882812 154.699219 173.882812 154.699219 C 173.722656 154.664062 173.546875 154.703125 173.398438 154.804688 C 173.183594 154.953125 173.023438 155.222656 172.96875 155.558594 L 172.96875 156.863281 L 172.746094 156.863281 L 172.746094 155.566406 C 172.746094 155.085938 172.359375 154.699219 171.917969 154.699219 C 171.917969 154.699219 171.914062 154.699219 171.910156 154.699219 C 171.75 154.664062 171.578125 154.703125 171.425781 154.804688 C 171.210938 154.953125 171.050781 155.222656 170.996094 155.558594 L 170.996094 156.863281 L 167.929688 156.863281 L 167.929688 155.566406 C 167.929688 155.085938 167.539062 154.699219 167.101562 154.699219 C 167.097656 154.699219 167.097656 154.699219 167.09375 154.699219 C 166.933594 154.664062 166.761719 154.703125 166.609375 154.804688 C 166.394531 154.953125 166.234375 155.222656 166.179688 155.558594 L 166.179688 156.863281 L 165.957031 156.863281 L 165.957031 155.566406 C 165.957031 155.085938 165.570312 154.699219 165.128906 154.699219 C 165.128906 154.699219 165.125 154.699219 165.125 154.699219 C 164.960938 154.664062 164.789062 154.703125 164.640625 154.804688 C 164.425781 154.953125 164.265625 155.222656 164.210938 155.558594 L 164.210938 156.863281 L 160.722656 156.863281 L 160.722656 155.566406 C 160.722656 155.085938 160.335938 154.695312 159.890625 154.699219 C 159.726562 154.664062 159.554688 154.703125 159.402344 154.804688 C 159.1875 154.953125 159.03125 155.222656 158.976562 155.558594 L 158.976562 156.863281 L 158.753906 156.863281 L 158.753906 155.566406 C 158.753906 155.085938 158.367188 154.695312 157.917969 154.699219 C 157.757812 154.664062 157.582031 154.703125 157.433594 154.804688 C 157.21875 154.953125 157.058594 155.222656 157.003906 155.558594 L 157.003906 156.863281 L 154.097656 156.863281 L 154.097656 155.566406 C 154.097656 155.085938 153.710938 154.695312 153.261719 154.699219 C 153.101562 154.664062 152.925781 154.703125 152.777344 154.804688 C 152.5625 154.953125 152.402344 155.222656 152.347656 155.558594 L 152.347656 156.863281 L 152.125 156.863281 L 152.125 155.566406 C 152.125 155.085938 151.746094 154.695312 151.292969 154.699219 C 151.128906 154.664062 150.957031 154.703125 150.808594 154.804688 C 150.589844 154.953125 150.433594 155.222656 150.378906 155.558594 L 150.378906 156.863281 L 147.230469 156.863281 L 147.230469 155.445312 C 147.230469 154.972656 146.847656 154.585938 146.375 154.574219 C 146.21875 154.550781 146.054688 154.589844 145.910156 154.6875 C 145.695312 154.835938 145.535156 155.105469 145.480469 155.441406 L 145.480469 156.863281 L 145.148438 156.863281 L 145.148438 155.441406 C 145.148438 154.960938 144.753906 154.570312 144.273438 154.570312 C 143.792969 154.570312 143.398438 154.960938 143.398438 155.441406 L 143.398438 156.863281 L 141.808594 156.863281 L 141.808594 159.277344 L 176.289062 159.277344 Z M 173.625 155.136719 C 173.667969 155.105469 173.730469 155.074219 173.84375 155.09375 C 174.101562 155.09375 174.316406 155.304688 174.316406 155.566406 L 174.316406 156.863281 L 173.367188 156.855469 L 173.367188 155.59375 C 173.398438 155.398438 173.5 155.222656 173.625 155.136719 Z M 171.652344 155.136719 C 171.695312 155.105469 171.761719 155.074219 171.871094 155.09375 C 172.132812 155.09375 172.34375 155.304688 172.34375 155.566406 L 172.34375 156.863281 L 171.398438 156.855469 L 171.394531 155.59375 C 171.429688 155.398438 171.527344 155.222656 171.652344 155.136719 Z M 166.835938 155.136719 C 166.878906 155.105469 166.941406 155.074219 167.054688 155.09375 C 167.316406 155.09375 167.527344 155.304688 167.527344 155.566406 L 167.527344 156.863281 L 166.582031 156.855469 L 166.578125 155.59375 C 166.613281 155.398438 166.710938 155.222656 166.835938 155.136719 Z M 164.867188 155.136719 C 164.90625 155.105469 164.972656 155.074219 165.085938 155.09375 C 165.34375 155.09375 165.558594 155.304688 165.558594 155.566406 L 165.558594 156.863281 L 164.609375 156.855469 L 164.609375 155.59375 C 164.640625 155.398438 164.738281 155.222656 164.867188 155.136719 Z M 159.628906 155.136719 C 159.671875 155.105469 159.738281 155.074219 159.847656 155.09375 C 160.109375 155.09375 160.320312 155.304688 160.320312 155.566406 L 160.320312 156.863281 L 159.375 156.855469 L 159.371094 155.59375 C 159.40625 155.398438 159.503906 155.222656 159.628906 155.136719 Z M 157.660156 155.136719 C 157.703125 155.105469 157.769531 155.074219 157.878906 155.09375 C 158.140625 155.09375 158.351562 155.304688 158.351562 155.566406 L 158.351562 156.863281 L 157.40625 156.855469 L 157.402344 155.59375 C 157.4375 155.398438 157.535156 155.222656 157.660156 155.136719 Z M 153.003906 155.136719 C 153.046875 155.105469 153.109375 155.074219 153.222656 155.09375 C 153.484375 155.09375 153.695312 155.304688 153.695312 155.566406 L 153.695312 156.863281 L 152.75 156.855469 L 152.746094 155.59375 C 152.78125 155.398438 152.878906 155.222656 153.003906 155.136719 Z M 151.035156 155.136719 C 151.074219 155.105469 151.140625 155.074219 151.25 155.09375 C 151.511719 155.09375 151.726562 155.304688 151.726562 155.566406 L 151.726562 156.863281 L 150.777344 156.855469 L 150.777344 155.59375 C 150.808594 155.398438 150.90625 155.222656 151.035156 155.136719 Z M 146.136719 155.015625 C 146.199219 154.976562 146.257812 154.957031 146.316406 154.972656 L 146.355469 154.976562 C 146.617188 154.976562 146.828125 155.1875 146.828125 155.445312 L 146.828125 156.742188 L 145.882812 156.738281 L 145.878906 155.476562 C 145.914062 155.277344 146.011719 155.101562 146.136719 155.015625 Z M 143.800781 155.441406 C 143.800781 155.183594 144.011719 154.972656 144.273438 154.972656 C 144.535156 154.972656 144.746094 155.183594 144.746094 155.441406 L 144.746094 156.738281 L 143.800781 156.738281 Z M 175.886719 158.878906 L 142.207031 158.878906 L 142.207031 157.261719 L 175.886719 157.261719 Z M 175.886719 158.878906 "/><path style=" stroke:none;fill-rule:nonzero;fill:#000000;fill-opacity:1;" d="M 132.992188 152.851562 C 132.832031 152.414062 132.414062 152.097656 131.917969 152.097656 C 131.285156 152.097656 130.769531 152.613281 130.769531 153.242188 L 130.769531 155.578125 L 130.027344 155.578125 L 130.027344 156.964844 L 136.050781 156.964844 L 136.050781 155.578125 L 135.238281 155.578125 L 135.238281 153.1875 C 135.238281 152.554688 134.722656 152.039062 134.089844 152.039062 C 133.570312 152.039062 133.136719 152.382812 132.992188 152.851562 Z M 131.167969 153.242188 C 131.167969 152.832031 131.503906 152.496094 131.917969 152.496094 C 132.332031 152.496094 132.667969 152.832031 132.667969 153.242188 L 132.667969 155.578125 L 131.167969 155.578125 Z M 135.652344 156.566406 L 130.425781 156.566406 L 130.425781 155.980469 L 135.652344 155.980469 Z M 134.835938 153.1875 L 134.835938 155.523438 L 133.339844 155.523438 L 133.339844 153.1875 C 133.339844 152.773438 133.675781 152.4375 134.089844 152.4375 C 134.5 152.4375 134.835938 152.773438 134.835938 153.1875 Z M 134.835938 153.1875 "/><path style=" stroke:none;fill-rule:nonzero;fill:#000000;fill-opacity:1;" d="M 187.375 122.039062 L 182.929688 122.039062 L 179.65625 130.6875 L 184.640625 130.6875 L 186.753906 127.753906 L 187.992188 127.753906 L 190.105469 130.6875 L 195.089844 130.6875 L 191.816406 122.039062 Z M 190.3125 130.289062 L 188.199219 127.355469 L 186.546875 127.355469 L 184.4375 130.289062 L 180.234375 130.289062 L 183.207031 122.441406 L 191.539062 122.441406 L 194.511719 130.289062 Z M 190.3125 130.289062 "/><g clip-rule="nonzero" clip-path="url(#1ae1c34179)"><path style=" stroke:none;fill-rule:nonzero;fill:#000000;fill-opacity:1;" d="M 191.289062 121.113281 L 191.289062 118.054688 L 187.789062 118.054688 L 187.789062 111.609375 L 187.390625 111.609375 L 187.390625 118.453125 L 190.886719 118.453125 L 190.886719 120.710938 L 183.859375 120.710938 L 183.859375 118.453125 L 187.355469 118.453125 L 187.355469 111.609375 L 186.957031 111.609375 L 186.957031 118.054688 L 183.460938 118.054688 L 183.460938 121.113281 Z M 191.289062 121.113281 "/></g><path style=" stroke:none;fill-rule:nonzero;fill:#000000;fill-opacity:1;" d="M 196.804688 151.945312 L 234.960938 151.945312 L 234.960938 147.789062 L 196.804688 147.789062 Z M 197.207031 148.191406 L 234.5625 148.191406 L 234.5625 151.546875 L 197.207031 151.546875 Z M 197.207031 148.191406 "/><g clip-rule="nonzero" clip-path="url(#f6b64a97d3)"><path style=" stroke:none;fill-rule:nonzero;fill:#000000;fill-opacity:1;" d="M 196.804688 166.332031 L 234.960938 166.332031 L 234.960938 152.921875 L 196.804688 152.921875 Z M 202.089844 165.933594 L 202.089844 163.003906 C 202.089844 161.96875 202.933594 161.125 203.972656 161.125 C 205.011719 161.125 205.855469 161.96875 205.855469 163.003906 L 205.855469 165.933594 Z M 213.910156 165.933594 L 213.910156 163.003906 C 213.910156 161.96875 214.753906 161.125 215.792969 161.125 C 216.828125 161.125 217.675781 161.96875 217.675781 163.003906 L 217.675781 165.933594 Z M 225.835938 165.933594 L 225.835938 163.003906 C 225.835938 161.96875 226.679688 161.125 227.71875 161.125 C 228.757812 161.125 229.601562 161.96875 229.601562 163.003906 L 229.601562 165.933594 Z M 197.207031 153.320312 L 234.5625 153.320312 L 234.5625 165.933594 L 230 165.933594 L 230 163.003906 C 230 161.746094 228.976562 160.726562 227.71875 160.726562 C 226.460938 160.726562 225.4375 161.746094 225.4375 163.003906 L 225.4375 165.933594 L 218.074219 165.933594 L 218.074219 163.003906 C 218.074219 161.746094 217.050781 160.726562 215.792969 160.726562 C 214.53125 160.726562 213.507812 161.746094 213.507812 163.003906 L 213.507812 165.933594 L 206.253906 165.933594 L 206.253906 163.003906 C 206.253906 161.746094 205.230469 160.726562 203.972656 160.726562 C 202.714844 160.726562 201.691406 161.746094 201.691406 163.003906 L 201.691406 165.933594 L 197.207031 165.933594 Z M 197.207031 153.320312 "/></g><path style=" stroke:none;fill-rule:nonzero;fill:#000000;fill-opacity:1;" d="M 231.960938 141.925781 L 226.910156 141.925781 L 224.90625 146.722656 L 233.765625 146.722656 Z M 227.179688 142.324219 L 231.683594 142.324219 L 233.1875 146.324219 L 225.507812 146.324219 Z M 227.179688 142.324219 "/><g clip-rule="nonzero" clip-path="url(#a714271993)"><path style=" stroke:none;fill-rule:nonzero;fill:#000000;fill-opacity:1;" d="M 241.652344 145.234375 L 243.320312 146.722656 L 247.566406 146.722656 L 244.71875 140.550781 L 238.855469 140.550781 L 236.203125 146.722656 L 239.980469 146.722656 Z M 236.808594 146.324219 L 239.117188 140.949219 L 244.460938 140.949219 L 246.941406 146.324219 L 243.472656 146.324219 L 241.652344 144.699219 L 239.828125 146.324219 Z M 236.808594 146.324219 "/></g><g clip-rule="nonzero" clip-path="url(#db139f77b1)"><path style=" stroke:none;fill-rule:nonzero;fill:#000000;fill-opacity:1;" d="M 243.230469 146.875 L 240.164062 146.875 L 240.164062 147.789062 L 236.304688 147.789062 L 236.304688 166.332031 L 247.453125 166.332031 L 247.453125 147.789062 L 243.230469 147.789062 Z M 240.566406 147.273438 L 242.828125 147.273438 L 242.828125 149.164062 L 240.566406 149.164062 Z M 239.425781 165.933594 C 239.40625 165.933594 239.386719 165.914062 239.386719 165.894531 L 239.386719 163.585938 C 239.386719 162.230469 240.492188 161.125 241.855469 161.125 C 243.214844 161.125 244.320312 162.230469 244.320312 163.585938 L 244.320312 165.894531 C 244.320312 165.914062 244.300781 165.933594 244.28125 165.933594 Z M 247.054688 148.191406 L 247.054688 165.933594 L 244.714844 165.933594 C 244.714844 165.921875 244.722656 165.90625 244.722656 165.894531 L 244.722656 163.585938 C 244.722656 162.011719 243.433594 160.726562 241.855469 160.726562 C 240.273438 160.726562 238.984375 162.011719 238.984375 163.585938 L 238.984375 165.894531 C 238.984375 165.90625 238.992188 165.921875 238.992188 165.933594 L 236.707031 165.933594 L 236.707031 148.191406 L 240.164062 148.191406 L 240.164062 149.566406 L 243.230469 149.566406 L 243.230469 148.191406 Z M 247.054688 148.191406 "/></g><path style=" stroke:none;fill-rule:nonzero;fill:#000000;fill-opacity:1;" d="M 244.332031 138.078125 L 243.945312 138.078125 L 243.96875 138.070312 C 243.949219 137.964844 243.960938 137.179688 243.980469 136.480469 L 243.578125 136.46875 C 243.550781 137.449219 243.546875 137.875 243.570312 138.078125 L 241.851562 138.078125 L 241.851562 134.992188 L 241.449219 134.992188 L 241.449219 138.078125 L 239.675781 138.078125 L 239.675781 136.472656 L 239.277344 136.472656 L 239.277344 138.078125 L 238.695312 138.078125 L 238.695312 139.757812 L 244.332031 139.757812 Z M 243.929688 139.359375 L 239.09375 139.359375 L 239.09375 138.476562 L 243.929688 138.476562 Z M 243.929688 139.359375 "/><path style=" stroke:none;fill-rule:nonzero;fill:#000000;fill-opacity:1;" d="M 231.195312 139.40625 L 231.195312 138.734375 L 230.792969 138.734375 L 230.792969 139.359375 L 229.171875 139.359375 L 229.171875 137.375 L 228.773438 137.375 L 228.773438 139.359375 L 227.335938 139.359375 L 227.335938 138.734375 L 226.9375 138.734375 L 226.9375 141.410156 L 231.195312 141.410156 Z M 230.792969 141.007812 L 227.335938 141.007812 L 227.335938 139.757812 L 230.792969 139.757812 Z M 230.792969 141.007812 "/><path style=" stroke:none;fill-rule:nonzero;fill:#000000;fill-opacity:1;" d="M 232.941406 156.863281 L 231.347656 156.863281 L 231.347656 155.441406 C 231.347656 154.960938 230.957031 154.570312 230.472656 154.570312 C 229.992188 154.570312 229.601562 154.960938 229.601562 155.441406 L 229.601562 156.863281 L 229.265625 156.863281 L 229.261719 155.40625 C 229.210938 155.105469 229.050781 154.835938 228.835938 154.6875 C 228.691406 154.589844 228.527344 154.546875 228.375 154.574219 C 227.898438 154.585938 227.519531 154.972656 227.519531 155.445312 L 227.519531 156.863281 L 224.367188 156.863281 L 224.367188 155.527344 C 224.316406 155.222656 224.15625 154.953125 223.941406 154.804688 C 223.789062 154.703125 223.617188 154.664062 223.496094 154.695312 C 223.011719 154.695312 222.621094 155.085938 222.621094 155.566406 L 222.621094 156.863281 L 222.398438 156.863281 L 222.394531 155.527344 C 222.34375 155.222656 222.183594 154.953125 221.96875 154.804688 C 221.820312 154.703125 221.644531 154.664062 221.523438 154.695312 C 221.042969 154.695312 220.652344 155.085938 220.652344 155.566406 L 220.652344 156.863281 L 217.742188 156.863281 L 217.738281 155.527344 C 217.6875 155.222656 217.527344 154.953125 217.3125 154.804688 C 217.164062 154.703125 216.992188 154.664062 216.867188 154.695312 C 216.386719 154.695312 215.996094 155.085938 215.996094 155.566406 L 215.996094 156.863281 L 215.773438 156.863281 L 215.769531 155.527344 C 215.71875 155.222656 215.558594 154.953125 215.34375 154.804688 C 215.191406 154.703125 215.019531 154.664062 214.898438 154.695312 C 214.417969 154.695312 214.023438 155.085938 214.023438 155.566406 L 214.023438 156.863281 L 210.535156 156.863281 L 210.535156 155.527344 C 210.480469 155.222656 210.324219 154.953125 210.109375 154.804688 C 209.957031 154.703125 209.785156 154.664062 209.664062 154.695312 C 209.179688 154.695312 208.789062 155.085938 208.789062 155.566406 L 208.789062 156.863281 L 208.566406 156.863281 L 208.5625 155.527344 C 208.511719 155.222656 208.351562 154.953125 208.136719 154.804688 C 207.988281 154.703125 207.8125 154.664062 207.691406 154.695312 C 207.210938 154.695312 206.820312 155.085938 206.820312 155.566406 L 206.820312 156.863281 L 203.75 156.863281 L 203.746094 155.527344 C 203.695312 155.222656 203.535156 154.953125 203.320312 154.804688 C 203.171875 154.703125 202.996094 154.664062 202.875 154.695312 C 202.394531 154.695312 202 155.085938 202 155.566406 L 202 156.863281 L 201.777344 156.863281 L 201.777344 155.527344 C 201.722656 155.222656 201.566406 154.953125 201.351562 154.804688 C 201.199219 154.703125 201.027344 154.664062 200.90625 154.695312 C 200.421875 154.695312 200.03125 155.085938 200.03125 155.566406 L 200.03125 156.863281 L 198.460938 156.863281 L 198.460938 159.277344 L 232.941406 159.277344 Z M 230 155.441406 C 230 155.183594 230.214844 154.972656 230.472656 154.972656 C 230.734375 154.972656 230.949219 155.183594 230.949219 155.441406 L 230.949219 156.738281 L 230 156.738281 Z M 227.917969 155.445312 C 227.917969 155.1875 228.132812 154.976562 228.390625 154.976562 L 228.433594 154.972656 C 228.503906 154.957031 228.566406 154.988281 228.609375 155.015625 C 228.734375 155.101562 228.835938 155.277344 228.867188 155.441406 L 228.867188 156.738281 L 227.917969 156.742188 Z M 223.023438 155.566406 C 223.023438 155.304688 223.234375 155.09375 223.535156 155.089844 C 223.546875 155.085938 223.558594 155.085938 223.570312 155.085938 C 223.628906 155.085938 223.679688 155.113281 223.714844 155.136719 C 223.839844 155.222656 223.9375 155.398438 223.96875 155.558594 L 223.96875 156.855469 L 223.023438 156.863281 Z M 221.050781 155.566406 C 221.050781 155.304688 221.265625 155.09375 221.566406 155.089844 C 221.578125 155.085938 221.589844 155.085938 221.601562 155.085938 C 221.65625 155.085938 221.707031 155.113281 221.742188 155.136719 C 221.867188 155.222656 221.96875 155.398438 222 155.558594 L 222 156.855469 L 221.050781 156.863281 Z M 216.394531 155.566406 C 216.394531 155.304688 216.609375 155.09375 216.910156 155.089844 C 216.921875 155.085938 216.933594 155.085938 216.945312 155.085938 C 217 155.085938 217.050781 155.113281 217.085938 155.136719 C 217.214844 155.222656 217.3125 155.398438 217.34375 155.558594 L 217.34375 156.855469 L 216.394531 156.863281 Z M 214.425781 155.566406 C 214.425781 155.304688 214.636719 155.09375 214.9375 155.089844 C 214.949219 155.085938 214.960938 155.085938 214.972656 155.085938 C 215.03125 155.085938 215.082031 155.113281 215.117188 155.136719 C 215.242188 155.222656 215.339844 155.398438 215.371094 155.558594 L 215.371094 156.855469 L 214.425781 156.863281 Z M 209.191406 155.566406 C 209.191406 155.304688 209.402344 155.09375 209.703125 155.089844 C 209.714844 155.085938 209.726562 155.085938 209.738281 155.085938 C 209.796875 155.085938 209.847656 155.113281 209.882812 155.136719 C 210.007812 155.222656 210.105469 155.398438 210.136719 155.558594 L 210.136719 156.855469 L 209.191406 156.863281 Z M 207.21875 155.566406 C 207.21875 155.304688 207.433594 155.09375 207.734375 155.089844 C 207.746094 155.085938 207.757812 155.085938 207.769531 155.085938 C 207.824219 155.085938 207.875 155.113281 207.910156 155.136719 C 208.035156 155.222656 208.136719 155.398438 208.167969 155.558594 L 208.167969 156.855469 L 207.21875 156.863281 Z M 202.402344 155.566406 C 202.402344 155.304688 202.613281 155.09375 202.914062 155.089844 C 202.925781 155.085938 202.9375 155.085938 202.949219 155.085938 C 203.007812 155.085938 203.058594 155.113281 203.09375 155.136719 C 203.21875 155.222656 203.316406 155.398438 203.347656 155.558594 L 203.347656 156.855469 L 202.402344 156.863281 Z M 200.433594 155.566406 C 200.433594 155.304688 200.644531 155.09375 200.945312 155.089844 C 200.957031 155.085938 200.96875 155.085938 200.980469 155.085938 C 201.039062 155.085938 201.089844 155.113281 201.125 155.136719 C 201.25 155.222656 201.347656 155.398438 201.378906 155.558594 L 201.378906 156.855469 L 200.433594 156.863281 Z M 232.539062 158.878906 L 198.859375 158.878906 L 198.859375 157.261719 L 232.539062 157.261719 Z M 232.539062 158.878906 "/><path style=" stroke:none;fill-rule:nonzero;fill:#000000;fill-opacity:1;" d="M 241.753906 152.851562 C 241.609375 152.382812 241.175781 152.039062 240.660156 152.039062 C 240.023438 152.039062 239.507812 152.554688 239.507812 153.1875 L 239.507812 155.578125 L 238.695312 155.578125 L 238.695312 156.964844 L 244.722656 156.964844 L 244.722656 155.578125 L 243.980469 155.578125 L 243.980469 153.242188 C 243.980469 152.613281 243.464844 152.097656 242.828125 152.097656 C 242.332031 152.097656 241.914062 152.414062 241.753906 152.851562 Z M 239.910156 153.1875 C 239.910156 152.773438 240.246094 152.4375 240.660156 152.4375 C 241.070312 152.4375 241.410156 152.773438 241.410156 153.1875 L 241.410156 155.523438 L 239.910156 155.523438 Z M 244.320312 155.980469 L 244.320312 156.566406 L 239.09375 156.566406 L 239.09375 155.980469 Z M 243.578125 153.242188 L 243.578125 155.578125 L 242.082031 155.578125 L 242.082031 153.242188 C 242.082031 152.832031 242.417969 152.496094 242.828125 152.496094 C 243.242188 152.496094 243.578125 152.832031 243.578125 153.242188 Z M 243.578125 153.242188 "/><path style=" stroke:none;fill-rule:nonzero;fill:#000000;fill-opacity:1;" d="M 191.28125 138.734375 C 191.28125 137.664062 190.410156 136.792969 189.335938 136.792969 C 188.261719 136.792969 187.390625 137.664062 187.390625 138.734375 L 187.390625 143.300781 L 187.070312 143.300781 L 187.070312 138.734375 C 187.070312 137.664062 186.195312 136.792969 185.121094 136.792969 C 184.050781 136.792969 183.175781 137.664062 183.175781 138.734375 L 183.175781 143.300781 L 182.257812 143.300781 L 182.257812 146.355469 L 192.488281 146.355469 L 192.488281 143.300781 L 191.28125 143.300781 Z M 187.789062 138.734375 C 187.789062 137.886719 188.484375 137.195312 189.335938 137.195312 C 190.1875 137.195312 190.878906 137.886719 190.878906 138.734375 L 190.878906 143.300781 L 187.789062 143.300781 Z M 183.578125 138.734375 C 183.578125 137.886719 184.269531 137.195312 185.121094 137.195312 C 185.976562 137.195312 186.667969 137.886719 186.667969 138.734375 L 186.667969 143.300781 L 183.578125 143.300781 Z M 192.085938 143.699219 L 192.085938 145.957031 L 182.660156 145.957031 L 182.660156 143.699219 Z M 192.085938 143.699219 "/><g clip-rule="nonzero" clip-path="url(#26dfef1541)"><path style=" stroke:none;fill-rule:nonzero;fill:#000000;fill-opacity:1;" d="M 194.875 131.160156 L 190.082031 131.160156 L 190.082031 131.5 C 189.648438 130.410156 188.535156 129.632812 187.234375 129.632812 C 186.078125 129.632812 185.070312 130.246094 184.554688 131.148438 C 184.179688 131.082031 183.097656 131.078125 179.789062 131.160156 L 179.59375 131.164062 L 179.59375 131.359375 C 179.652344 142.785156 179.734375 164.332031 179.613281 165.992188 L 179.5625 166.015625 L 179.597656 166.175781 C 179.609375 166.242188 179.621094 166.285156 179.871094 166.316406 L 179.871094 166.320312 C 179.875 166.316406 179.875 166.316406 179.878906 166.316406 C 180.234375 166.359375 181.074219 166.371094 183.074219 166.371094 C 184.132812 166.371094 185.519531 166.367188 187.332031 166.363281 C 191.097656 166.351562 194.863281 166.332031 194.863281 166.332031 L 195.0625 166.332031 L 194.875 131.355469 Z M 187.234375 130.03125 C 188.695312 130.03125 189.882812 131.148438 189.882812 132.519531 C 189.882812 133.890625 188.695312 135.007812 187.234375 135.007812 C 185.777344 135.007812 184.589844 133.890625 184.589844 132.519531 C 184.589844 131.148438 185.777344 130.03125 187.234375 130.03125 Z M 183.761719 165.933594 L 183.761719 159.492188 C 183.761719 157.554688 185.339844 155.980469 187.28125 155.980469 L 187.328125 155.980469 C 189.269531 155.980469 190.847656 157.554688 190.847656 159.492188 L 190.847656 165.933594 Z M 191.25 165.949219 L 191.25 159.492188 C 191.25 157.332031 189.488281 155.578125 187.328125 155.578125 L 187.28125 155.578125 C 185.121094 155.578125 183.359375 157.332031 183.359375 159.492188 L 183.359375 165.96875 C 181.707031 165.96875 180.433594 165.960938 179.992188 165.949219 C 180.078125 165.015625 180.097656 161.609375 180.0625 148.71875 C 180.042969 140.796875 180 132.886719 179.996094 131.554688 C 181.539062 131.515625 183.800781 131.484375 184.378906 131.519531 C 184.257812 131.832031 184.1875 132.167969 184.1875 132.519531 C 184.1875 134.109375 185.554688 135.40625 187.234375 135.40625 C 188.917969 135.40625 190.285156 134.109375 190.285156 132.519531 C 190.285156 132.183594 190.21875 131.859375 190.105469 131.558594 L 194.476562 131.558594 L 194.660156 165.933594 C 193.753906 165.941406 192.5625 165.945312 191.25 165.949219 Z M 191.25 165.949219 "/></g><path style=" stroke:none;fill-rule:nonzero;fill:#000000;fill-opacity:1;" d="M 188.5 133.945312 L 187.476562 132.511719 L 188.507812 130.917969 L 188.167969 130.699219 L 186.992188 132.523438 L 188.175781 134.175781 Z M 188.5 133.945312 "/><g style="fill:#231f20;fill-opacity:1;"><g transform="translate(155.899959, 252.46368)"><path style="stroke:none" d="M 6.265625 0.09375 C 5.222656 0.09375 4.285156 -0.132812 3.453125 -0.59375 C 2.617188 -1.0625 1.960938 -1.703125 1.484375 -2.515625 C 1.015625 -3.328125 0.78125 -4.238281 0.78125 -5.25 C 0.78125 -6.257812 1.015625 -7.171875 1.484375 -7.984375 C 1.960938 -8.796875 2.617188 -9.429688 3.453125 -9.890625 C 4.296875 -10.359375 5.238281 -10.59375 6.28125 -10.59375 C 7.0625 -10.59375 7.78125 -10.460938 8.4375 -10.203125 C 9.101562 -9.941406 9.664062 -9.5625 10.125 -9.0625 L 9.421875 -8.359375 C 8.597656 -9.179688 7.5625 -9.59375 6.3125 -9.59375 C 5.476562 -9.59375 4.722656 -9.398438 4.046875 -9.015625 C 3.367188 -8.640625 2.835938 -8.125 2.453125 -7.46875 C 2.066406 -6.8125 1.875 -6.070312 1.875 -5.25 C 1.875 -4.425781 2.066406 -3.6875 2.453125 -3.03125 C 2.835938 -2.375 3.367188 -1.851562 4.046875 -1.46875 C 4.722656 -1.09375 5.476562 -0.90625 6.3125 -0.90625 C 7.570312 -0.90625 8.609375 -1.320312 9.421875 -2.15625 L 10.125 -1.453125 C 9.664062 -0.953125 9.101562 -0.566406 8.4375 -0.296875 C 7.769531 -0.0351562 7.046875 0.09375 6.265625 0.09375 Z M 6.265625 0.09375 "/></g></g><g style="fill:#231f20;fill-opacity:1;"><g transform="translate(166.684951, 252.46368)"><path style="stroke:none" d="M 5.5 -7.953125 C 6.488281 -7.953125 7.273438 -7.660156 7.859375 -7.078125 C 8.453125 -6.503906 8.75 -5.671875 8.75 -4.578125 L 8.75 0 L 7.6875 0 L 7.6875 -4.46875 C 7.6875 -5.289062 7.476562 -5.914062 7.0625 -6.34375 C 6.65625 -6.769531 6.070312 -6.984375 5.3125 -6.984375 C 4.457031 -6.984375 3.78125 -6.726562 3.28125 -6.21875 C 2.789062 -5.71875 2.546875 -5.023438 2.546875 -4.140625 L 2.546875 0 L 1.484375 0 L 1.484375 -11.125 L 2.546875 -11.125 L 2.546875 -6.515625 C 2.835938 -6.972656 3.238281 -7.328125 3.75 -7.578125 C 4.257812 -7.828125 4.84375 -7.953125 5.5 -7.953125 Z M 5.5 -7.953125 "/></g></g><g style="fill:#231f20;fill-opacity:1;"><g transform="translate(176.839945, 252.46368)"><path style="stroke:none" d="M 8.359375 -3.609375 L 1.75 -3.609375 C 1.8125 -2.796875 2.128906 -2.132812 2.703125 -1.625 C 3.273438 -1.125 3.992188 -0.875 4.859375 -0.875 C 5.347656 -0.875 5.796875 -0.957031 6.203125 -1.125 C 6.617188 -1.300781 6.976562 -1.5625 7.28125 -1.90625 L 7.875 -1.21875 C 7.519531 -0.789062 7.082031 -0.46875 6.5625 -0.25 C 6.039062 -0.03125 5.460938 0.078125 4.828125 0.078125 C 4.015625 0.078125 3.296875 -0.09375 2.671875 -0.4375 C 2.046875 -0.78125 1.554688 -1.257812 1.203125 -1.875 C 0.859375 -2.488281 0.6875 -3.175781 0.6875 -3.9375 C 0.6875 -4.707031 0.851562 -5.398438 1.1875 -6.015625 C 1.519531 -6.628906 1.976562 -7.101562 2.5625 -7.4375 C 3.15625 -7.78125 3.816406 -7.953125 4.546875 -7.953125 C 5.273438 -7.953125 5.925781 -7.78125 6.5 -7.4375 C 7.082031 -7.101562 7.539062 -6.628906 7.875 -6.015625 C 8.207031 -5.410156 8.375 -4.71875 8.375 -3.9375 Z M 4.546875 -7.03125 C 3.785156 -7.03125 3.144531 -6.785156 2.625 -6.296875 C 2.113281 -5.816406 1.820312 -5.1875 1.75 -4.40625 L 7.34375 -4.40625 C 7.28125 -5.1875 6.988281 -5.816406 6.46875 -6.296875 C 5.957031 -6.785156 5.316406 -7.03125 4.546875 -7.03125 Z M 4.546875 -7.03125 "/></g></g><g style="fill:#231f20;fill-opacity:1;"><g transform="translate(185.899934, 252.46368)"><path style="stroke:none" d="M 5.5 -7.953125 C 6.488281 -7.953125 7.273438 -7.660156 7.859375 -7.078125 C 8.453125 -6.503906 8.75 -5.671875 8.75 -4.578125 L 8.75 0 L 7.6875 0 L 7.6875 -4.46875 C 7.6875 -5.289062 7.476562 -5.914062 7.0625 -6.34375 C 6.65625 -6.769531 6.070312 -6.984375 5.3125 -6.984375 C 4.457031 -6.984375 3.78125 -6.726562 3.28125 -6.21875 C 2.789062 -5.71875 2.546875 -5.023438 2.546875 -4.140625 L 2.546875 0 L 1.484375 0 L 1.484375 -7.890625 L 2.5 -7.890625 L 2.5 -6.4375 C 2.789062 -6.914062 3.191406 -7.285156 3.703125 -7.546875 C 4.222656 -7.816406 4.820312 -7.953125 5.5 -7.953125 Z M 5.5 -7.953125 "/></g></g><g style="fill:#231f20;fill-opacity:1;"><g transform="translate(196.054929, 252.46368)"><path style="stroke:none" d="M 5.5 -7.953125 C 6.488281 -7.953125 7.273438 -7.660156 7.859375 -7.078125 C 8.453125 -6.503906 8.75 -5.671875 8.75 -4.578125 L 8.75 0 L 7.6875 0 L 7.6875 -4.46875 C 7.6875 -5.289062 7.476562 -5.914062 7.0625 -6.34375 C 6.65625 -6.769531 6.070312 -6.984375 5.3125 -6.984375 C 4.457031 -6.984375 3.78125 -6.726562 3.28125 -6.21875 C 2.789062 -5.71875 2.546875 -5.023438 2.546875 -4.140625 L 2.546875 0 L 1.484375 0 L 1.484375 -7.890625 L 2.5 -7.890625 L 2.5 -6.4375 C 2.789062 -6.914062 3.191406 -7.285156 3.703125 -7.546875 C 4.222656 -7.816406 4.820312 -7.953125 5.5 -7.953125 Z M 5.5 -7.953125 "/></g></g><g style="fill:#231f20;fill-opacity:1;"><g transform="translate(206.209923, 252.46368)"><path style="stroke:none" d="M 4.25 -7.953125 C 5.28125 -7.953125 6.066406 -7.691406 6.609375 -7.171875 C 7.160156 -6.660156 7.4375 -5.898438 7.4375 -4.890625 L 7.4375 0 L 6.421875 0 L 6.421875 -1.234375 C 6.179688 -0.816406 5.828125 -0.492188 5.359375 -0.265625 C 4.898438 -0.0351562 4.347656 0.078125 3.703125 0.078125 C 2.828125 0.078125 2.128906 -0.128906 1.609375 -0.546875 C 1.085938 -0.972656 0.828125 -1.53125 0.828125 -2.21875 C 0.828125 -2.882812 1.066406 -3.421875 1.546875 -3.828125 C 2.035156 -4.242188 2.8125 -4.453125 3.875 -4.453125 L 6.375 -4.453125 L 6.375 -4.9375 C 6.375 -5.613281 6.179688 -6.128906 5.796875 -6.484375 C 5.421875 -6.835938 4.867188 -7.015625 4.140625 -7.015625 C 3.640625 -7.015625 3.160156 -6.929688 2.703125 -6.765625 C 2.242188 -6.609375 1.847656 -6.382812 1.515625 -6.09375 L 1.03125 -6.890625 C 1.4375 -7.222656 1.914062 -7.484375 2.46875 -7.671875 C 3.03125 -7.859375 3.625 -7.953125 4.25 -7.953125 Z M 3.875 -0.765625 C 4.46875 -0.765625 4.976562 -0.898438 5.40625 -1.171875 C 5.84375 -1.453125 6.164062 -1.851562 6.375 -2.375 L 6.375 -3.65625 L 3.90625 -3.65625 C 2.550781 -3.65625 1.875 -3.1875 1.875 -2.25 C 1.875 -1.789062 2.046875 -1.425781 2.390625 -1.15625 C 2.742188 -0.894531 3.238281 -0.765625 3.875 -0.765625 Z M 3.875 -0.765625 "/></g></g><g style="fill:#231f20;fill-opacity:1;"><g transform="translate(215.059913, 252.46368)"><path style="stroke:none" d="M 1.484375 -7.890625 L 2.546875 -7.890625 L 2.546875 0 L 1.484375 0 Z M 2.03125 -9.609375 C 1.8125 -9.609375 1.625 -9.679688 1.46875 -9.828125 C 1.320312 -9.984375 1.25 -10.164062 1.25 -10.375 C 1.25 -10.582031 1.320312 -10.757812 1.46875 -10.90625 C 1.625 -11.050781 1.8125 -11.125 2.03125 -11.125 C 2.25 -11.125 2.429688 -11.050781 2.578125 -10.90625 C 2.734375 -10.757812 2.8125 -10.585938 2.8125 -10.390625 C 2.8125 -10.171875 2.734375 -9.984375 2.578125 -9.828125 C 2.429688 -9.679688 2.25 -9.609375 2.03125 -9.609375 Z M 2.03125 -9.609375 "/></g></g></g></svg>