<svg xmlns="http://www.w3.org/2000/svg" xmlns:xlink="http://www.w3.org/1999/xlink" width="500" zoomAndPan="magnify" viewBox="0 0 375 374.999991" height="500" preserveAspectRatio="xMidYMid meet" version="1.2"><defs><clipPath id="a7e3110aa6"><path d="M 181.160156 225.492188 L 193.910156 225.492188 L 193.910156 243.492188 L 181.160156 243.492188 Z M 181.160156 225.492188 "/></clipPath><clipPath id="b36db16d1c"><path d="M 106 184 L 172 184 L 172 207.1875 L 106 207.1875 Z M 106 184 "/></clipPath><clipPath id="5a6977c3f4"><path d="M 85.144531 163 L 105 163 L 105 174 L 85.144531 174 Z M 85.144531 163 "/></clipPath><clipPath id="713da377e6"><path d="M 85.144531 174 L 105 174 L 105 207.1875 L 85.144531 207.1875 Z M 85.144531 174 "/></clipPath><clipPath id="8c69309b37"><path d="M 180 114.1875 L 195 114.1875 L 195 131 L 180 131 Z M 180 114.1875 "/></clipPath><clipPath id="7fdd969487"><path d="M 203 184 L 269 184 L 269 207.1875 L 203 207.1875 Z M 203 184 "/></clipPath><clipPath id="2fe2e3a83d"><path d="M 270 163 L 289.894531 163 L 289.894531 174 L 270 174 Z M 270 163 "/></clipPath><clipPath id="9a672c58da"><path d="M 270 174 L 289.894531 174 L 289.894531 207.1875 L 270 207.1875 Z M 270 174 "/></clipPath><clipPath id="6de5e12af4"><path d="M 174 144 L 201 144 L 201 207.1875 L 174 207.1875 Z M 174 144 "/></clipPath></defs><g id="4a1458600a"><g clip-rule="nonzero" clip-path="url(#a7e3110aa6)"><path style=" stroke:none;fill-rule:nonzero;fill:#000000;fill-opacity:1;" d="M 187.496094 236.503906 C 184.914062 236.503906 182.820312 234.410156 182.820312 231.828125 C 182.820312 229.242188 184.914062 227.148438 187.496094 227.148438 C 190.082031 227.148438 192.175781 229.242188 192.175781 231.828125 C 192.175781 234.410156 190.082031 236.503906 187.496094 236.503906 Z M 187.496094 225.492188 C 184 225.492188 181.164062 228.328125 181.164062 231.828125 C 181.164062 235.324219 187.496094 243.257812 187.496094 243.257812 C 187.496094 243.257812 193.832031 235.324219 193.832031 231.828125 C 193.832031 228.328125 190.996094 225.492188 187.496094 225.492188 "/></g><path style=" stroke:none;fill-rule:nonzero;fill:#000000;fill-opacity:1;" d="M 106.824219 182.703125 L 171.523438 182.703125 L 171.523438 175.640625 L 106.824219 175.640625 Z M 107.503906 176.320312 L 170.84375 176.320312 L 170.84375 182.023438 L 107.503906 182.023438 Z M 107.503906 176.320312 "/><g clip-rule="nonzero" clip-path="url(#b36db16d1c)"><path style=" stroke:none;fill-rule:nonzero;fill:#000000;fill-opacity:1;" d="M 106.824219 207.140625 L 171.523438 207.140625 L 171.523438 184.359375 L 106.824219 184.359375 Z M 115.914062 206.460938 L 115.914062 201.484375 C 115.914062 199.726562 117.347656 198.292969 119.105469 198.292969 C 120.867188 198.292969 122.296875 199.726562 122.296875 201.484375 L 122.296875 206.460938 Z M 136.140625 206.460938 L 136.140625 201.484375 C 136.140625 199.726562 137.570312 198.292969 139.332031 198.292969 C 141.089844 198.292969 142.523438 199.726562 142.523438 201.484375 L 142.523438 206.460938 Z M 156.179688 206.460938 L 156.179688 201.484375 C 156.179688 199.726562 157.613281 198.292969 159.371094 198.292969 C 161.132812 198.292969 162.5625 199.726562 162.5625 201.484375 L 162.5625 206.460938 Z M 107.503906 185.039062 L 170.84375 185.039062 L 170.84375 206.460938 L 163.242188 206.460938 L 163.242188 201.484375 C 163.242188 199.351562 161.507812 197.617188 159.371094 197.617188 C 157.238281 197.617188 155.503906 199.351562 155.503906 201.484375 L 155.503906 206.460938 L 143.199219 206.460938 L 143.199219 201.484375 C 143.199219 199.351562 141.464844 197.617188 139.332031 197.617188 C 137.195312 197.617188 135.460938 199.351562 135.460938 201.484375 L 135.460938 206.460938 L 122.976562 206.460938 L 122.976562 201.484375 C 122.976562 199.351562 121.242188 197.617188 119.105469 197.617188 C 116.972656 197.617188 115.234375 199.351562 115.234375 201.484375 L 115.234375 206.460938 L 107.503906 206.460938 Z M 107.503906 185.039062 "/></g><path style=" stroke:none;fill-rule:nonzero;fill:#000000;fill-opacity:1;" d="M 120.476562 165.679688 L 111.914062 165.679688 L 108.855469 173.832031 L 123.875 173.832031 Z M 112.382812 166.359375 L 120.023438 166.359375 L 122.855469 173.152344 L 109.835938 173.152344 Z M 112.382812 166.359375 "/><g clip-rule="nonzero" clip-path="url(#5a6977c3f4)"><path style=" stroke:none;fill-rule:nonzero;fill:#000000;fill-opacity:1;" d="M 90.277344 163.34375 L 85.449219 173.832031 L 92.652344 173.832031 L 95.480469 171.300781 L 98.3125 173.832031 L 104.71875 173.832031 L 100.222656 163.34375 Z M 98.570312 173.152344 L 95.480469 170.390625 L 92.390625 173.152344 L 86.507812 173.152344 L 90.714844 164.023438 L 99.773438 164.023438 L 103.6875 173.152344 Z M 98.570312 173.152344 "/></g><g clip-rule="nonzero" clip-path="url(#713da377e6)"><path style=" stroke:none;fill-rule:nonzero;fill:#000000;fill-opacity:1;" d="M 98 174.085938 L 92.804688 174.085938 L 92.804688 175.640625 L 85.640625 175.640625 L 85.640625 207.140625 L 104.542969 207.140625 L 104.542969 175.640625 L 98 175.640625 Z M 93.484375 174.765625 L 97.324219 174.765625 L 97.324219 177.976562 L 93.484375 177.976562 Z M 91.023438 206.460938 C 90.984375 206.460938 90.953125 206.429688 90.953125 206.394531 L 90.953125 202.476562 C 90.953125 200.171875 92.832031 198.292969 95.136719 198.292969 C 97.445312 198.292969 99.320312 200.171875 99.320312 202.476562 L 99.320312 206.394531 C 99.320312 206.429688 99.289062 206.460938 99.253906 206.460938 Z M 103.863281 176.320312 L 103.863281 206.460938 L 99.988281 206.460938 C 99.988281 206.4375 100 206.417969 100 206.394531 L 100 202.476562 C 100 199.796875 97.820312 197.617188 95.136719 197.617188 C 92.457031 197.617188 90.273438 199.796875 90.273438 202.476562 L 90.273438 206.394531 C 90.273438 206.417969 90.285156 206.4375 90.289062 206.460938 L 86.320312 206.460938 L 86.320312 176.320312 L 92.804688 176.320312 L 92.804688 178.65625 L 98 178.65625 L 98 176.320312 Z M 103.863281 176.320312 "/></g><path style=" stroke:none;fill-rule:nonzero;fill:#000000;fill-opacity:1;" d="M 100.492188 159.144531 L 99.507812 159.144531 L 99.507812 156.421875 L 98.828125 156.421875 L 98.828125 159.144531 L 95.820312 159.144531 L 95.820312 153.90625 L 95.140625 153.90625 L 95.140625 159.144531 L 92.230469 159.144531 C 92.265625 158.800781 92.257812 158.074219 92.210938 156.410156 L 91.53125 156.429688 C 91.566406 157.617188 91.582031 158.953125 91.550781 159.132812 L 91.585938 159.144531 L 90.9375 159.144531 L 90.9375 162 L 100.492188 162 Z M 99.816406 161.320312 L 91.613281 161.320312 L 91.613281 159.820312 L 99.816406 159.820312 Z M 99.816406 161.320312 "/><path style=" stroke:none;fill-rule:nonzero;fill:#000000;fill-opacity:1;" d="M 120.433594 161.402344 L 120.433594 160.261719 L 119.753906 160.261719 L 119.753906 161.320312 L 117.214844 161.320312 L 117.214844 157.875 L 116.535156 157.875 L 116.535156 161.320312 L 113.890625 161.320312 L 113.890625 160.261719 L 113.210938 160.261719 L 113.210938 164.800781 L 120.433594 164.800781 Z M 119.753906 164.125 L 113.890625 164.125 L 113.890625 162 L 119.753906 162 Z M 119.753906 164.125 "/><path style=" stroke:none;fill-rule:nonzero;fill:#000000;fill-opacity:1;" d="M 168.722656 191.050781 L 166.054688 191.050781 L 166.054688 188.847656 C 166.054688 188.035156 165.398438 187.375 164.652344 187.375 C 164.648438 187.375 164.644531 187.375 164.640625 187.375 C 164.367188 187.320312 164.074219 187.382812 163.820312 187.558594 C 163.453125 187.808594 163.183594 188.265625 163.09375 188.839844 L 163.09375 191.050781 L 162.714844 191.050781 L 162.714844 188.847656 C 162.714844 188.035156 162.058594 187.375 161.3125 187.375 C 161.308594 187.375 161.304688 187.375 161.300781 187.375 C 161.027344 187.320312 160.734375 187.382812 160.476562 187.558594 C 160.113281 187.808594 159.84375 188.265625 159.75 188.839844 L 159.75 191.050781 L 154.546875 191.050781 L 154.546875 188.847656 C 154.546875 188.035156 153.886719 187.375 153.144531 187.375 C 153.140625 187.375 153.136719 187.375 153.132812 187.375 C 152.859375 187.320312 152.566406 187.382812 152.308594 187.558594 C 151.945312 187.808594 151.675781 188.265625 151.582031 188.839844 L 151.582031 191.050781 L 151.203125 191.050781 L 151.203125 188.847656 C 151.203125 188.035156 150.546875 187.375 149.800781 187.375 C 149.796875 187.375 149.792969 187.375 149.789062 187.375 C 149.515625 187.320312 149.222656 187.382812 148.96875 187.558594 C 148.601562 187.808594 148.332031 188.265625 148.242188 188.839844 L 148.242188 191.050781 L 142.328125 191.050781 L 142.328125 188.847656 C 142.328125 188.03125 141.667969 187.371094 140.914062 187.375 C 140.640625 187.320312 140.347656 187.386719 140.089844 187.558594 C 139.726562 187.808594 139.457031 188.265625 139.363281 188.839844 L 139.363281 191.050781 L 138.984375 191.050781 L 138.984375 188.847656 C 138.984375 188.03125 138.332031 187.371094 137.570312 187.375 C 137.296875 187.320312 137.003906 187.386719 136.75 187.558594 C 136.386719 187.808594 136.113281 188.265625 136.023438 188.839844 L 136.023438 191.050781 L 131.089844 191.050781 L 131.089844 188.847656 C 131.089844 188.03125 130.4375 187.371094 129.675781 187.375 C 129.402344 187.320312 129.109375 187.382812 128.855469 187.558594 C 128.488281 187.808594 128.21875 188.265625 128.125 188.839844 L 128.125 191.050781 L 127.75 191.050781 L 127.75 188.847656 C 127.75 188.03125 127.105469 187.371094 126.335938 187.375 C 126.0625 187.320312 125.769531 187.382812 125.511719 187.558594 C 125.148438 187.808594 124.878906 188.265625 124.785156 188.839844 L 124.785156 191.050781 L 119.445312 191.050781 L 119.445312 188.648438 C 119.445312 187.84375 118.800781 187.183594 117.996094 187.167969 C 117.730469 187.125 117.453125 187.191406 117.210938 187.359375 C 116.84375 187.609375 116.574219 188.066406 116.480469 188.636719 L 116.480469 191.050781 L 115.914062 191.050781 L 115.914062 188.640625 C 115.914062 187.824219 115.25 187.160156 114.433594 187.160156 C 113.617188 187.160156 112.953125 187.824219 112.953125 188.640625 L 112.953125 191.050781 L 110.25 191.050781 L 110.25 195.15625 L 168.722656 195.15625 Z M 164.203125 188.121094 C 164.277344 188.070312 164.386719 188.015625 164.574219 188.046875 C 165.015625 188.046875 165.375 188.40625 165.375 188.847656 L 165.375 191.050781 L 163.769531 191.042969 L 163.765625 188.894531 C 163.824219 188.5625 163.992188 188.265625 164.203125 188.121094 Z M 160.863281 188.121094 C 160.933594 188.070312 161.042969 188.015625 161.234375 188.046875 C 161.675781 188.046875 162.035156 188.40625 162.035156 188.847656 L 162.035156 191.050781 L 160.429688 191.042969 L 160.425781 188.894531 C 160.484375 188.5625 160.648438 188.265625 160.863281 188.121094 Z M 152.695312 188.121094 C 152.765625 188.070312 152.875 188.015625 153.0625 188.046875 C 153.507812 188.046875 153.867188 188.40625 153.867188 188.847656 L 153.867188 191.050781 L 152.261719 191.042969 L 152.257812 188.894531 C 152.3125 188.5625 152.480469 188.265625 152.695312 188.121094 Z M 149.351562 188.121094 C 149.425781 188.070312 149.535156 188.015625 149.722656 188.046875 C 150.164062 188.046875 150.523438 188.40625 150.523438 188.847656 L 150.523438 191.050781 L 148.917969 191.042969 L 148.914062 188.894531 C 148.972656 188.5625 149.140625 188.265625 149.351562 188.121094 Z M 140.476562 188.121094 C 140.546875 188.070312 140.65625 188.015625 140.84375 188.046875 C 141.289062 188.046875 141.648438 188.40625 141.648438 188.847656 L 141.648438 191.050781 L 140.042969 191.042969 L 140.039062 188.894531 C 140.09375 188.5625 140.261719 188.265625 140.476562 188.121094 Z M 137.132812 188.121094 C 137.207031 188.070312 137.316406 188.015625 137.503906 188.046875 C 137.945312 188.046875 138.308594 188.40625 138.308594 188.847656 L 138.308594 191.050781 L 136.699219 191.042969 L 136.695312 188.894531 C 136.753906 188.5625 136.921875 188.265625 137.132812 188.121094 Z M 129.238281 188.121094 C 129.308594 188.070312 129.421875 188.015625 129.609375 188.046875 C 130.050781 188.046875 130.410156 188.40625 130.410156 188.847656 L 130.410156 191.050781 L 128.804688 191.042969 L 128.800781 188.894531 C 128.859375 188.5625 129.023438 188.265625 129.238281 188.121094 Z M 125.898438 188.121094 C 125.96875 188.070312 126.078125 188.015625 126.265625 188.046875 C 126.710938 188.046875 127.070312 188.40625 127.070312 188.847656 L 127.070312 191.050781 L 125.464844 191.042969 L 125.460938 188.894531 C 125.515625 188.5625 125.683594 188.265625 125.898438 188.121094 Z M 117.59375 187.917969 C 117.699219 187.847656 117.800781 187.816406 117.894531 187.839844 L 117.964844 187.847656 C 118.40625 187.847656 118.765625 188.207031 118.765625 188.648438 L 118.765625 190.851562 L 117.160156 190.84375 L 117.15625 188.695312 C 117.214844 188.363281 117.382812 188.0625 117.59375 187.917969 Z M 113.628906 188.640625 C 113.628906 188.199219 113.992188 187.839844 114.433594 187.839844 C 114.875 187.839844 115.234375 188.199219 115.234375 188.640625 L 115.234375 190.84375 L 113.628906 190.84375 Z M 168.042969 194.476562 L 110.929688 194.476562 L 110.929688 191.730469 L 168.042969 191.730469 Z M 168.042969 194.476562 "/><path style=" stroke:none;fill-rule:nonzero;fill:#000000;fill-opacity:1;" d="M 95.308594 184.242188 C 95.035156 183.496094 94.324219 182.957031 93.480469 182.957031 C 92.40625 182.957031 91.53125 183.832031 91.53125 184.90625 L 91.53125 188.875 L 90.273438 188.875 L 90.273438 191.226562 L 100.492188 191.226562 L 100.492188 188.875 L 99.113281 188.875 L 99.113281 184.808594 C 99.113281 183.734375 98.238281 182.859375 97.164062 182.859375 C 96.285156 182.859375 95.550781 183.445312 95.308594 184.242188 Z M 92.210938 184.90625 C 92.210938 184.207031 92.78125 183.636719 93.480469 183.636719 C 94.183594 183.636719 94.753906 184.207031 94.753906 184.90625 L 94.753906 188.875 L 92.210938 188.875 Z M 99.816406 190.546875 L 90.953125 190.546875 L 90.953125 189.550781 L 99.816406 189.550781 Z M 98.433594 184.808594 L 98.433594 188.777344 L 95.890625 188.777344 L 95.890625 184.808594 C 95.890625 184.109375 96.460938 183.539062 97.164062 183.539062 C 97.863281 183.539062 98.433594 184.109375 98.433594 184.808594 Z M 98.433594 184.808594 "/><path style=" stroke:none;fill-rule:nonzero;fill:#000000;fill-opacity:1;" d="M 187.519531 131.902344 L 179.984375 131.902344 L 174.433594 146.589844 L 182.886719 146.589844 L 186.46875 141.609375 L 188.570312 141.609375 L 192.152344 146.589844 L 200.605469 146.589844 L 195.054688 131.902344 Z M 192.5 145.910156 L 188.917969 140.929688 L 186.121094 140.929688 L 182.539062 145.910156 L 175.414062 145.910156 L 180.453125 132.582031 L 194.585938 132.582031 L 199.625 145.910156 Z M 192.5 145.910156 "/><g clip-rule="nonzero" clip-path="url(#8c69309b37)"><path style=" stroke:none;fill-rule:nonzero;fill:#000000;fill-opacity:1;" d="M 194.15625 130.324219 L 194.15625 125.132812 L 188.226562 125.132812 L 188.226562 114.1875 L 187.546875 114.1875 L 187.546875 125.8125 L 193.476562 125.8125 L 193.476562 129.644531 L 181.5625 129.644531 L 181.5625 125.8125 L 187.492188 125.8125 L 187.492188 114.1875 L 186.8125 114.1875 L 186.8125 125.132812 L 180.882812 125.132812 L 180.882812 130.324219 Z M 194.15625 130.324219 "/></g><path style=" stroke:none;fill-rule:nonzero;fill:#000000;fill-opacity:1;" d="M 203.515625 182.703125 L 268.214844 182.703125 L 268.214844 175.640625 L 203.515625 175.640625 Z M 204.195312 176.320312 L 267.535156 176.320312 L 267.535156 182.023438 L 204.195312 182.023438 Z M 204.195312 176.320312 "/><g clip-rule="nonzero" clip-path="url(#7fdd969487)"><path style=" stroke:none;fill-rule:nonzero;fill:#000000;fill-opacity:1;" d="M 203.515625 207.140625 L 268.214844 207.140625 L 268.214844 184.359375 L 203.515625 184.359375 Z M 212.476562 206.460938 L 212.476562 201.484375 C 212.476562 199.726562 213.90625 198.292969 215.667969 198.292969 C 217.425781 198.292969 218.855469 199.726562 218.855469 201.484375 L 218.855469 206.460938 Z M 232.519531 206.460938 L 232.519531 201.484375 C 232.519531 199.726562 233.949219 198.292969 235.707031 198.292969 C 237.46875 198.292969 238.898438 199.726562 238.898438 201.484375 L 238.898438 206.460938 Z M 252.742188 206.460938 L 252.742188 201.484375 C 252.742188 199.726562 254.171875 198.292969 255.933594 198.292969 C 257.691406 198.292969 259.125 199.726562 259.125 201.484375 L 259.125 206.460938 Z M 204.195312 185.039062 L 267.535156 185.039062 L 267.535156 206.460938 L 259.804688 206.460938 L 259.804688 201.484375 C 259.804688 199.351562 258.066406 197.617188 255.933594 197.617188 C 253.800781 197.617188 252.0625 199.351562 252.0625 201.484375 L 252.0625 206.460938 L 239.578125 206.460938 L 239.578125 201.484375 C 239.578125 199.351562 237.84375 197.617188 235.707031 197.617188 C 233.574219 197.617188 231.839844 199.351562 231.839844 201.484375 L 231.839844 206.460938 L 219.535156 206.460938 L 219.535156 201.484375 C 219.535156 199.351562 217.800781 197.617188 215.667969 197.617188 C 213.53125 197.617188 211.796875 199.351562 211.796875 201.484375 L 211.796875 206.460938 L 204.195312 206.460938 Z M 204.195312 185.039062 "/></g><path style=" stroke:none;fill-rule:nonzero;fill:#000000;fill-opacity:1;" d="M 263.125 165.679688 L 254.566406 165.679688 L 251.167969 173.832031 L 266.183594 173.832031 Z M 255.015625 166.359375 L 262.65625 166.359375 L 265.203125 173.152344 L 252.183594 173.152344 Z M 255.015625 166.359375 "/><g clip-rule="nonzero" clip-path="url(#2fe2e3a83d)"><path style=" stroke:none;fill-rule:nonzero;fill:#000000;fill-opacity:1;" d="M 279.558594 171.300781 L 282.386719 173.832031 L 289.589844 173.832031 L 284.761719 163.34375 L 274.816406 163.34375 L 270.320312 173.832031 L 276.726562 173.832031 Z M 271.347656 173.152344 L 275.265625 164.023438 L 284.324219 164.023438 L 288.53125 173.152344 L 282.648438 173.152344 L 279.558594 170.390625 L 276.46875 173.152344 Z M 271.347656 173.152344 "/></g><g clip-rule="nonzero" clip-path="url(#9a672c58da)"><path style=" stroke:none;fill-rule:nonzero;fill:#000000;fill-opacity:1;" d="M 282.234375 174.085938 L 277.039062 174.085938 L 277.039062 175.640625 L 270.496094 175.640625 L 270.496094 207.140625 L 289.398438 207.140625 L 289.398438 175.640625 L 282.234375 175.640625 Z M 277.71875 174.765625 L 281.554688 174.765625 L 281.554688 177.976562 L 277.71875 177.976562 Z M 275.785156 206.460938 C 275.75 206.460938 275.71875 206.429688 275.71875 206.394531 L 275.71875 202.476562 C 275.71875 200.171875 277.59375 198.292969 279.902344 198.292969 C 282.210938 198.292969 284.085938 200.171875 284.085938 202.476562 L 284.085938 206.394531 C 284.085938 206.429688 284.054688 206.460938 284.015625 206.460938 Z M 288.71875 176.320312 L 288.71875 206.460938 L 284.75 206.460938 C 284.753906 206.4375 284.765625 206.417969 284.765625 206.394531 L 284.765625 202.476562 C 284.765625 199.796875 282.582031 197.617188 279.902344 197.617188 C 277.222656 197.617188 275.039062 199.796875 275.039062 202.476562 L 275.039062 206.394531 C 275.039062 206.417969 275.050781 206.4375 275.050781 206.460938 L 271.175781 206.460938 L 271.175781 176.320312 L 277.039062 176.320312 L 277.039062 178.65625 L 282.234375 178.65625 L 282.234375 176.320312 Z M 288.71875 176.320312 "/></g><path style=" stroke:none;fill-rule:nonzero;fill:#000000;fill-opacity:1;" d="M 284.105469 159.144531 L 283.449219 159.144531 L 283.488281 159.132812 C 283.457031 158.953125 283.472656 157.617188 283.507812 156.429688 L 282.828125 156.410156 C 282.78125 158.074219 282.773438 158.800781 282.808594 159.144531 L 279.898438 159.144531 L 279.898438 153.90625 L 279.21875 153.90625 L 279.21875 159.144531 L 276.210938 159.144531 L 276.210938 156.421875 L 275.53125 156.421875 L 275.53125 159.144531 L 274.546875 159.144531 L 274.546875 162 L 284.105469 162 Z M 283.425781 161.320312 L 275.222656 161.320312 L 275.222656 159.820312 L 283.425781 159.820312 Z M 283.425781 161.320312 "/><path style=" stroke:none;fill-rule:nonzero;fill:#000000;fill-opacity:1;" d="M 261.828125 161.402344 L 261.828125 160.261719 L 261.148438 160.261719 L 261.148438 161.320312 L 258.398438 161.320312 L 258.398438 157.953125 L 257.71875 157.953125 L 257.71875 161.320312 L 255.285156 161.320312 L 255.285156 160.261719 L 254.605469 160.261719 L 254.605469 164.800781 L 261.828125 164.800781 Z M 261.148438 164.125 L 255.285156 164.125 L 255.285156 162 L 261.148438 162 Z M 261.148438 164.125 "/><path style=" stroke:none;fill-rule:nonzero;fill:#000000;fill-opacity:1;" d="M 264.789062 191.050781 L 262.089844 191.050781 L 262.089844 188.640625 C 262.089844 187.824219 261.421875 187.160156 260.605469 187.160156 C 259.789062 187.160156 259.125 187.824219 259.125 188.640625 L 259.125 191.050781 L 258.554688 191.050781 L 258.550781 188.582031 C 258.464844 188.066406 258.195312 187.609375 257.828125 187.359375 C 257.585938 187.191406 257.304688 187.121094 257.042969 187.167969 C 256.242188 187.183594 255.59375 187.84375 255.59375 188.648438 L 255.59375 191.050781 L 250.253906 191.050781 L 250.25 188.78125 C 250.160156 188.265625 249.890625 187.808594 249.527344 187.558594 C 249.269531 187.382812 248.976562 187.320312 248.773438 187.367188 C 247.953125 187.367188 247.289062 188.03125 247.289062 188.847656 L 247.289062 191.050781 L 246.910156 191.050781 L 246.910156 188.78125 C 246.820312 188.265625 246.550781 187.808594 246.183594 187.558594 C 245.929688 187.382812 245.636719 187.320312 245.429688 187.367188 C 244.613281 187.367188 243.949219 188.03125 243.949219 188.847656 L 243.949219 191.050781 L 239.015625 191.050781 L 239.011719 188.78125 C 238.925781 188.265625 238.65625 187.808594 238.289062 187.558594 C 238.035156 187.386719 237.742188 187.320312 237.535156 187.367188 C 236.71875 187.367188 236.054688 188.03125 236.054688 188.847656 L 236.054688 191.050781 L 235.675781 191.050781 L 235.671875 188.78125 C 235.582031 188.265625 235.3125 187.808594 234.949219 187.558594 C 234.695312 187.382812 234.398438 187.320312 234.195312 187.367188 C 233.375 187.367188 232.710938 188.03125 232.710938 188.847656 L 232.710938 191.050781 L 226.796875 191.050781 L 226.792969 188.78125 C 226.707031 188.265625 226.433594 187.808594 226.070312 187.558594 C 225.816406 187.382812 225.519531 187.320312 225.316406 187.367188 C 224.5 187.367188 223.835938 188.03125 223.835938 188.847656 L 223.835938 191.050781 L 223.457031 191.050781 L 223.453125 188.78125 C 223.363281 188.265625 223.09375 187.808594 222.730469 187.558594 C 222.476562 187.382812 222.179688 187.320312 221.976562 187.367188 C 221.15625 187.367188 220.492188 188.03125 220.492188 188.847656 L 220.492188 191.050781 L 215.289062 191.050781 L 215.285156 188.78125 C 215.195312 188.265625 214.925781 187.808594 214.558594 187.558594 C 214.304688 187.382812 214.011719 187.320312 213.804688 187.367188 C 212.988281 187.367188 212.324219 188.03125 212.324219 188.847656 L 212.324219 191.050781 L 211.945312 191.050781 L 211.941406 188.78125 C 211.855469 188.265625 211.585938 187.808594 211.21875 187.558594 C 210.964844 187.382812 210.671875 187.320312 210.464844 187.367188 C 209.648438 187.367188 208.984375 188.03125 208.984375 188.847656 L 208.984375 191.050781 L 206.316406 191.050781 L 206.316406 195.15625 L 264.789062 195.15625 Z M 259.804688 188.640625 C 259.804688 188.199219 260.164062 187.839844 260.605469 187.839844 C 261.046875 187.839844 261.410156 188.199219 261.410156 188.640625 L 261.410156 190.84375 L 259.804688 190.84375 Z M 256.273438 188.648438 C 256.273438 188.207031 256.632812 187.847656 257.074219 187.847656 L 257.144531 187.839844 C 257.265625 187.8125 257.375 187.871094 257.445312 187.917969 C 257.660156 188.0625 257.824219 188.363281 257.878906 188.636719 L 257.878906 190.84375 L 256.273438 190.851562 Z M 247.96875 188.847656 C 247.96875 188.40625 248.328125 188.046875 248.839844 188.039062 C 248.859375 188.035156 248.878906 188.035156 248.898438 188.035156 C 248.996094 188.035156 249.082031 188.078125 249.140625 188.121094 C 249.355469 188.265625 249.523438 188.5625 249.574219 188.839844 L 249.574219 191.042969 L 247.96875 191.050781 Z M 244.628906 188.847656 C 244.628906 188.40625 244.988281 188.046875 245.5 188.039062 C 245.519531 188.035156 245.539062 188.035156 245.558594 188.035156 C 245.65625 188.035156 245.742188 188.078125 245.800781 188.121094 C 246.015625 188.265625 246.179688 188.5625 246.234375 188.839844 L 246.234375 191.042969 L 244.628906 191.050781 Z M 236.734375 188.847656 C 236.734375 188.40625 237.09375 188.046875 237.601562 188.039062 C 237.625 188.035156 237.644531 188.035156 237.664062 188.035156 C 237.757812 188.035156 237.847656 188.078125 237.90625 188.121094 C 238.117188 188.265625 238.285156 188.5625 238.335938 188.839844 L 238.335938 191.042969 L 236.734375 191.050781 Z M 233.390625 188.847656 C 233.390625 188.40625 233.75 188.046875 234.261719 188.039062 C 234.28125 188.035156 234.300781 188.035156 234.320312 188.035156 C 234.417969 188.035156 234.503906 188.078125 234.5625 188.121094 C 234.777344 188.265625 234.945312 188.5625 234.996094 188.839844 L 234.996094 191.042969 L 233.390625 191.050781 Z M 224.511719 188.847656 C 224.511719 188.40625 224.875 188.046875 225.382812 188.039062 C 225.40625 188.035156 225.425781 188.035156 225.445312 188.035156 C 225.539062 188.035156 225.625 188.078125 225.6875 188.121094 C 225.898438 188.265625 226.066406 188.5625 226.117188 188.839844 L 226.117188 191.042969 L 224.511719 191.050781 Z M 221.171875 188.847656 C 221.171875 188.40625 221.53125 188.046875 222.042969 188.039062 C 222.0625 188.035156 222.082031 188.035156 222.101562 188.035156 C 222.199219 188.035156 222.285156 188.078125 222.34375 188.121094 C 222.558594 188.265625 222.726562 188.5625 222.777344 188.839844 L 222.777344 191.042969 L 221.171875 191.050781 Z M 213.003906 188.847656 C 213.003906 188.40625 213.363281 188.046875 213.875 188.039062 C 213.894531 188.035156 213.914062 188.035156 213.933594 188.035156 C 214.03125 188.035156 214.117188 188.078125 214.175781 188.121094 C 214.390625 188.265625 214.554688 188.5625 214.609375 188.839844 L 214.609375 191.042969 L 213.003906 191.050781 Z M 209.664062 188.847656 C 209.664062 188.40625 210.023438 188.046875 210.53125 188.039062 C 210.554688 188.035156 210.574219 188.035156 210.59375 188.035156 C 210.691406 188.035156 210.777344 188.078125 210.835938 188.121094 C 211.046875 188.265625 211.214844 188.5625 211.269531 188.839844 L 211.269531 191.042969 L 209.664062 191.050781 Z M 264.109375 194.476562 L 206.996094 194.476562 L 206.996094 191.730469 L 264.109375 191.730469 Z M 264.109375 194.476562 "/><path style=" stroke:none;fill-rule:nonzero;fill:#000000;fill-opacity:1;" d="M 279.730469 184.242188 C 279.488281 183.445312 278.753906 182.859375 277.875 182.859375 C 276.800781 182.859375 275.925781 183.734375 275.925781 184.808594 L 275.925781 188.875 L 274.546875 188.875 L 274.546875 191.226562 L 284.765625 191.226562 L 284.765625 188.875 L 283.507812 188.875 L 283.507812 184.90625 C 283.507812 183.832031 282.632812 182.957031 281.558594 182.957031 C 280.71875 182.957031 280.003906 183.496094 279.730469 184.242188 Z M 276.605469 184.808594 C 276.605469 184.109375 277.175781 183.539062 277.875 183.539062 C 278.578125 183.539062 279.148438 184.109375 279.148438 184.808594 L 279.148438 188.777344 L 276.605469 188.777344 Z M 284.085938 189.550781 L 284.085938 190.546875 L 275.222656 190.546875 L 275.222656 189.550781 Z M 282.828125 184.90625 L 282.828125 188.875 L 280.285156 188.875 L 280.285156 184.90625 C 280.285156 184.207031 280.855469 183.636719 281.558594 183.636719 C 282.257812 183.636719 282.828125 184.207031 282.828125 184.90625 Z M 282.828125 184.90625 "/><path style=" stroke:none;fill-rule:nonzero;fill:#000000;fill-opacity:1;" d="M 194.144531 160.261719 C 194.144531 158.441406 192.667969 156.964844 190.847656 156.964844 C 189.027344 156.964844 187.546875 158.441406 187.546875 160.261719 L 187.546875 168.015625 L 187.003906 168.015625 L 187.003906 160.261719 C 187.003906 158.441406 185.523438 156.964844 183.703125 156.964844 C 181.882812 156.964844 180.402344 158.441406 180.402344 160.261719 L 180.402344 168.015625 L 178.847656 168.015625 L 178.847656 173.207031 L 196.191406 173.207031 L 196.191406 168.015625 L 194.144531 168.015625 Z M 188.226562 160.261719 C 188.226562 158.816406 189.402344 157.640625 190.847656 157.640625 C 192.292969 157.640625 193.464844 158.816406 193.464844 160.261719 L 193.464844 168.015625 L 188.226562 168.015625 Z M 181.082031 160.261719 C 181.082031 158.816406 182.257812 157.640625 183.703125 157.640625 C 185.148438 157.640625 186.324219 158.816406 186.324219 160.261719 L 186.324219 168.015625 L 181.082031 168.015625 Z M 195.511719 168.695312 L 195.511719 172.527344 L 179.527344 172.527344 L 179.527344 168.695312 Z M 195.511719 168.695312 "/><g clip-rule="nonzero" clip-path="url(#6de5e12af4)"><path style=" stroke:none;fill-rule:nonzero;fill:#000000;fill-opacity:1;" d="M 200.242188 147.390625 L 192.113281 147.390625 L 192.113281 147.96875 C 191.375 146.117188 189.492188 144.796875 187.285156 144.796875 C 185.320312 144.796875 183.609375 145.84375 182.738281 147.378906 C 182.101562 147.261719 180.265625 147.253906 174.65625 147.390625 L 174.324219 147.398438 L 174.324219 147.730469 C 174.429688 167.140625 174.566406 203.742188 174.359375 206.5625 L 174.277344 206.597656 L 174.332031 206.871094 C 174.355469 206.984375 174.371094 207.058594 174.796875 207.109375 L 174.796875 207.113281 C 174.800781 207.113281 174.804688 207.113281 174.808594 207.109375 C 175.414062 207.183594 176.835938 207.203125 180.226562 207.203125 C 182.023438 207.203125 184.375 207.195312 187.449219 207.1875 C 193.835938 207.171875 200.21875 207.140625 200.21875 207.140625 L 200.554688 207.140625 L 200.242188 147.730469 Z M 187.285156 145.476562 C 189.761719 145.476562 191.773438 147.371094 191.773438 149.703125 C 191.773438 152.03125 189.761719 153.929688 187.285156 153.929688 C 184.8125 153.929688 182.796875 152.03125 182.796875 149.703125 C 182.796875 147.371094 184.8125 145.476562 187.285156 145.476562 Z M 181.394531 206.460938 L 181.394531 195.515625 C 181.394531 192.226562 184.074219 189.550781 187.363281 189.550781 L 187.441406 189.550781 C 190.734375 189.550781 193.410156 192.226562 193.410156 195.515625 L 193.410156 206.460938 Z M 194.089844 206.488281 L 194.089844 195.515625 C 194.089844 191.851562 191.105469 188.875 187.441406 188.875 L 187.363281 188.875 C 183.699219 188.875 180.714844 191.851562 180.714844 195.515625 L 180.714844 206.519531 C 177.910156 206.519531 175.75 206.511719 175 206.488281 C 175.148438 204.90625 175.183594 199.117188 175.125 177.214844 C 175.085938 163.765625 175.019531 150.324219 175.007812 148.0625 C 177.625 148 181.460938 147.941406 182.441406 148.003906 C 182.234375 148.535156 182.117188 149.105469 182.117188 149.703125 C 182.117188 152.40625 184.4375 154.605469 187.285156 154.605469 C 190.136719 154.605469 192.453125 152.40625 192.453125 149.703125 C 192.453125 149.128906 192.34375 148.582031 192.152344 148.070312 L 199.566406 148.070312 L 199.875 206.464844 C 198.339844 206.472656 196.316406 206.480469 194.089844 206.488281 Z M 194.089844 206.488281 "/></g><path style=" stroke:none;fill-rule:nonzero;fill:#000000;fill-opacity:1;" d="M 189.433594 152.125 L 187.695312 149.691406 L 189.441406 146.980469 L 188.871094 146.613281 L 186.875 149.710938 L 188.878906 152.519531 Z M 189.433594 152.125 "/><g style="fill:#231f20;fill-opacity:1;"><g transform="translate(155.899959, 256.163554)"><path style="stroke:none" d="M 6.265625 0.09375 C 5.222656 0.09375 4.285156 -0.132812 3.453125 -0.59375 C 2.617188 -1.0625 1.960938 -1.703125 1.484375 -2.515625 C 1.015625 -3.328125 0.78125 -4.238281 0.78125 -5.25 C 0.78125 -6.257812 1.015625 -7.171875 1.484375 -7.984375 C 1.960938 -8.796875 2.617188 -9.429688 3.453125 -9.890625 C 4.296875 -10.359375 5.238281 -10.59375 6.28125 -10.59375 C 7.0625 -10.59375 7.78125 -10.460938 8.4375 -10.203125 C 9.101562 -9.941406 9.664062 -9.5625 10.125 -9.0625 L 9.421875 -8.359375 C 8.597656 -9.179688 7.5625 -9.59375 6.3125 -9.59375 C 5.476562 -9.59375 4.722656 -9.398438 4.046875 -9.015625 C 3.367188 -8.640625 2.835938 -8.125 2.453125 -7.46875 C 2.066406 -6.8125 1.875 -6.070312 1.875 -5.25 C 1.875 -4.425781 2.066406 -3.6875 2.453125 -3.03125 C 2.835938 -2.375 3.367188 -1.851562 4.046875 -1.46875 C 4.722656 -1.09375 5.476562 -0.90625 6.3125 -0.90625 C 7.570312 -0.90625 8.609375 -1.320312 9.421875 -2.15625 L 10.125 -1.453125 C 9.664062 -0.953125 9.101562 -0.566406 8.4375 -0.296875 C 7.769531 -0.0351562 7.046875 0.09375 6.265625 0.09375 Z M 6.265625 0.09375 "/></g></g><g style="fill:#231f20;fill-opacity:1;"><g transform="translate(166.684951, 256.163554)"><path style="stroke:none" d="M 5.5 -7.953125 C 6.488281 -7.953125 7.273438 -7.660156 7.859375 -7.078125 C 8.453125 -6.503906 8.75 -5.671875 8.75 -4.578125 L 8.75 0 L 7.6875 0 L 7.6875 -4.46875 C 7.6875 -5.289062 7.476562 -5.914062 7.0625 -6.34375 C 6.65625 -6.769531 6.070312 -6.984375 5.3125 -6.984375 C 4.457031 -6.984375 3.78125 -6.726562 3.28125 -6.21875 C 2.789062 -5.71875 2.546875 -5.023438 2.546875 -4.140625 L 2.546875 0 L 1.484375 0 L 1.484375 -11.125 L 2.546875 -11.125 L 2.546875 -6.515625 C 2.835938 -6.972656 3.238281 -7.328125 3.75 -7.578125 C 4.257812 -7.828125 4.84375 -7.953125 5.5 -7.953125 Z M 5.5 -7.953125 "/></g></g><g style="fill:#231f20;fill-opacity:1;"><g transform="translate(176.839945, 256.163554)"><path style="stroke:none" d="M 8.359375 -3.609375 L 1.75 -3.609375 C 1.8125 -2.796875 2.128906 -2.132812 2.703125 -1.625 C 3.273438 -1.125 3.992188 -0.875 4.859375 -0.875 C 5.347656 -0.875 5.796875 -0.957031 6.203125 -1.125 C 6.617188 -1.300781 6.976562 -1.5625 7.28125 -1.90625 L 7.875 -1.21875 C 7.519531 -0.789062 7.082031 -0.46875 6.5625 -0.25 C 6.039062 -0.03125 5.460938 0.078125 4.828125 0.078125 C 4.015625 0.078125 3.296875 -0.09375 2.671875 -0.4375 C 2.046875 -0.78125 1.554688 -1.257812 1.203125 -1.875 C 0.859375 -2.488281 0.6875 -3.175781 0.6875 -3.9375 C 0.6875 -4.707031 0.851562 -5.398438 1.1875 -6.015625 C 1.519531 -6.628906 1.976562 -7.101562 2.5625 -7.4375 C 3.15625 -7.78125 3.816406 -7.953125 4.546875 -7.953125 C 5.273438 -7.953125 5.925781 -7.78125 6.5 -7.4375 C 7.082031 -7.101562 7.539062 -6.628906 7.875 -6.015625 C 8.207031 -5.410156 8.375 -4.71875 8.375 -3.9375 Z M 4.546875 -7.03125 C 3.785156 -7.03125 3.144531 -6.785156 2.625 -6.296875 C 2.113281 -5.816406 1.820312 -5.1875 1.75 -4.40625 L 7.34375 -4.40625 C 7.28125 -5.1875 6.988281 -5.816406 6.46875 -6.296875 C 5.957031 -6.785156 5.316406 -7.03125 4.546875 -7.03125 Z M 4.546875 -7.03125 "/></g></g><g style="fill:#231f20;fill-opacity:1;"><g transform="translate(185.899934, 256.163554)"><path style="stroke:none" d="M 5.5 -7.953125 C 6.488281 -7.953125 7.273438 -7.660156 7.859375 -7.078125 C 8.453125 -6.503906 8.75 -5.671875 8.75 -4.578125 L 8.75 0 L 7.6875 0 L 7.6875 -4.46875 C 7.6875 -5.289062 7.476562 -5.914062 7.0625 -6.34375 C 6.65625 -6.769531 6.070312 -6.984375 5.3125 -6.984375 C 4.457031 -6.984375 3.78125 -6.726562 3.28125 -6.21875 C 2.789062 -5.71875 2.546875 -5.023438 2.546875 -4.140625 L 2.546875 0 L 1.484375 0 L 1.484375 -7.890625 L 2.5 -7.890625 L 2.5 -6.4375 C 2.789062 -6.914062 3.191406 -7.285156 3.703125 -7.546875 C 4.222656 -7.816406 4.820312 -7.953125 5.5 -7.953125 Z M 5.5 -7.953125 "/></g></g><g style="fill:#231f20;fill-opacity:1;"><g transform="translate(196.054929, 256.163554)"><path style="stroke:none" d="M 5.5 -7.953125 C 6.488281 -7.953125 7.273438 -7.660156 7.859375 -7.078125 C 8.453125 -6.503906 8.75 -5.671875 8.75 -4.578125 L 8.75 0 L 7.6875 0 L 7.6875 -4.46875 C 7.6875 -5.289062 7.476562 -5.914062 7.0625 -6.34375 C 6.65625 -6.769531 6.070312 -6.984375 5.3125 -6.984375 C 4.457031 -6.984375 3.78125 -6.726562 3.28125 -6.21875 C 2.789062 -5.71875 2.546875 -5.023438 2.546875 -4.140625 L 2.546875 0 L 1.484375 0 L 1.484375 -7.890625 L 2.5 -7.890625 L 2.5 -6.4375 C 2.789062 -6.914062 3.191406 -7.285156 3.703125 -7.546875 C 4.222656 -7.816406 4.820312 -7.953125 5.5 -7.953125 Z M 5.5 -7.953125 "/></g></g><g style="fill:#231f20;fill-opacity:1;"><g transform="translate(206.209923, 256.163554)"><path style="stroke:none" d="M 4.25 -7.953125 C 5.28125 -7.953125 6.066406 -7.691406 6.609375 -7.171875 C 7.160156 -6.660156 7.4375 -5.898438 7.4375 -4.890625 L 7.4375 0 L 6.421875 0 L 6.421875 -1.234375 C 6.179688 -0.816406 5.828125 -0.492188 5.359375 -0.265625 C 4.898438 -0.0351562 4.347656 0.078125 3.703125 0.078125 C 2.828125 0.078125 2.128906 -0.128906 1.609375 -0.546875 C 1.085938 -0.972656 0.828125 -1.53125 0.828125 -2.21875 C 0.828125 -2.882812 1.066406 -3.421875 1.546875 -3.828125 C 2.035156 -4.242188 2.8125 -4.453125 3.875 -4.453125 L 6.375 -4.453125 L 6.375 -4.9375 C 6.375 -5.613281 6.179688 -6.128906 5.796875 -6.484375 C 5.421875 -6.835938 4.867188 -7.015625 4.140625 -7.015625 C 3.640625 -7.015625 3.160156 -6.929688 2.703125 -6.765625 C 2.242188 -6.609375 1.847656 -6.382812 1.515625 -6.09375 L 1.03125 -6.890625 C 1.4375 -7.222656 1.914062 -7.484375 2.46875 -7.671875 C 3.03125 -7.859375 3.625 -7.953125 4.25 -7.953125 Z M 3.875 -0.765625 C 4.46875 -0.765625 4.976562 -0.898438 5.40625 -1.171875 C 5.84375 -1.453125 6.164062 -1.851562 6.375 -2.375 L 6.375 -3.65625 L 3.90625 -3.65625 C 2.550781 -3.65625 1.875 -3.1875 1.875 -2.25 C 1.875 -1.789062 2.046875 -1.425781 2.390625 -1.15625 C 2.742188 -0.894531 3.238281 -0.765625 3.875 -0.765625 Z M 3.875 -0.765625 "/></g></g><g style="fill:#231f20;fill-opacity:1;"><g transform="translate(215.059913, 256.163554)"><path style="stroke:none" d="M 1.484375 -7.890625 L 2.546875 -7.890625 L 2.546875 0 L 1.484375 0 Z M 2.03125 -9.609375 C 1.8125 -9.609375 1.625 -9.679688 1.46875 -9.828125 C 1.320312 -9.984375 1.25 -10.164062 1.25 -10.375 C 1.25 -10.582031 1.320312 -10.757812 1.46875 -10.90625 C 1.625 -11.050781 1.8125 -11.125 2.03125 -11.125 C 2.25 -11.125 2.429688 -11.050781 2.578125 -10.90625 C 2.734375 -10.757812 2.8125 -10.585938 2.8125 -10.390625 C 2.8125 -10.171875 2.734375 -9.984375 2.578125 -9.828125 C 2.429688 -9.679688 2.25 -9.609375 2.03125 -9.609375 Z M 2.03125 -9.609375 "/></g></g></g></svg>