<?xml version="1.0" encoding="UTF-8"?>
<svg version="1.1" xmlns="http://www.w3.org/2000/svg" width="587" height="587">
<path d="M0 0 C193.71 0 387.42 0 587 0 C587 193.71 587 387.42 587 587 C393.29 587 199.58 587 0 587 C0 393.29 0 199.58 0 0 Z M20 20 C20 200.51 20 381.02 20 567 C200.51 567 381.02 567 567 567 C567 386.49 567 205.98 567 20 C386.49 20 205.98 20 20 20 Z " fill="#000000" transform="translate(0,0)"/>
<path d="M0 0 C0.91873398 -0.01283524 1.83746796 -0.02567047 2.78404236 -0.03889465 C3.77255692 -0.04628159 4.76107147 -0.05366852 5.77954102 -0.0612793 C6.80845963 -0.06935104 7.83737823 -0.07742279 8.8974762 -0.08573914 C11.07876916 -0.09956717 13.26008365 -0.11029505 15.44140625 -0.11816406 C17.65338563 -0.12963682 19.86533836 -0.15001308 22.07714844 -0.1796875 C42.28324207 -0.45063594 57.82782699 1.63880403 73.24438477 15.91137695 C84.7157585 28.27828544 88.44040598 42.65841203 88.65844727 59.05200195 C88.68503418 60.28345947 88.68503418 60.28345947 88.7121582 61.53979492 C88.70637672 66.23532463 88.41114872 69.3734673 85.34594727 73.17700195 C82.82911919 74.43541599 81.09087913 74.31414197 78.27297974 74.3309021 C77.19899933 74.33950256 76.12501892 74.34810303 75.01849365 74.35696411 C73.83507385 74.36122406 72.65165405 74.36548401 71.43237305 74.36987305 C70.19004913 74.37805054 68.94772522 74.38622803 67.66775513 74.39465332 C63.54225998 74.41953825 59.4168015 74.43617909 55.29125977 74.45043945 C53.87172311 74.45579886 52.45218652 74.46117637 51.03264999 74.46657181 C45.12895907 74.48819886 39.22527088 74.50693666 33.32155037 74.5181942 C24.85649687 74.53444147 16.3919018 74.56763933 7.92702115 74.62459505 C1.97707359 74.66326678 -3.97275121 74.68282346 -9.92282116 74.68811476 C-13.47781734 74.69177164 -17.03232458 74.70382736 -20.58718491 74.7362175 C-24.55215746 74.77182706 -28.51655225 74.76793426 -32.48168945 74.76049805 C-33.66106079 74.77690338 -34.84043213 74.79330872 -36.05554199 74.81021118 C-44.00097331 74.74899157 -44.00097331 74.74899157 -47.38247681 71.78735352 C-48.70003726 69.08260272 -49.16843806 67.39403214 -49.18530273 64.40356445 C-49.19360107 63.5036377 -49.20189941 62.60371094 -49.21044922 61.67651367 C-49.19183838 60.7279248 -49.17322754 59.77933594 -49.15405273 58.80200195 C-49.13483765 57.33077881 -49.13483765 57.33077881 -49.11523438 55.82983398 C-48.68713583 40.31920127 -44.148431 26.75805665 -33.34155273 15.30200195 C-24.57941158 7.08935101 -12.26994144 0.15011756 0 0 Z " fill="#000000" transform="translate(430.654052734375,443.822998046875)"/>
<path d="M0 0 C1.03037384 -0.00428513 2.06074768 -0.00857025 3.12234497 -0.01298523 C5.29233061 -0.01870344 7.46233541 -0.01924739 9.63232422 -0.01489258 C12.92839706 -0.01173495 16.22356924 -0.03521602 19.51953125 -0.06054688 C21.63801971 -0.06282055 23.75651056 -0.06352305 25.875 -0.0625 C26.84823212 -0.07170975 27.82146423 -0.08091949 28.82418823 -0.09040833 C42.87754282 0.00327061 55.56608179 5.73602928 65.8828125 15.23828125 C77.13908756 27.13636146 81.42684132 41.4649297 81.3203125 57.55078125 C81.32804688 58.73414063 81.33578125 59.9175 81.34375 61.13671875 C81.34117187 62.26851563 81.33859375 63.4003125 81.3359375 64.56640625 C81.33368164 65.59540039 81.33142578 66.62439453 81.32910156 67.68457031 C81.0703125 70.30078125 81.0703125 70.30078125 79.0703125 73.30078125 C76.06550113 74.30238504 74.05556205 74.43349914 70.91505432 74.44795227 C69.31464294 74.45868523 69.31464294 74.45868523 67.68190002 74.46963501 C66.51142624 74.47232391 65.34095245 74.47501282 64.13500977 74.4777832 C62.28593521 74.48764 62.28593521 74.48764 60.39950562 74.49769592 C56.31190754 74.51744086 52.22434867 74.52909321 48.13671875 74.5390625 C46.7292523 74.54311049 45.32178604 74.54722742 43.91431999 74.55141258 C37.3041983 74.57045552 30.69408774 74.58469059 24.0839439 74.59302455 C16.45212501 74.60280567 8.82059548 74.62915139 1.1888786 74.66952544 C-4.71013654 74.69966337 -10.60906858 74.71449104 -16.50815922 74.71780556 C-20.03176376 74.720158 -23.55505884 74.72914336 -27.07858086 74.75426674 C-31.00747888 74.78182952 -34.93599412 74.77772343 -38.86499023 74.77075195 C-40.03343979 74.78356201 -41.20188934 74.79637207 -42.40574646 74.80957031 C-44.01038757 74.79915459 -44.01038757 74.79915459 -45.64744568 74.78852844 C-46.57640372 74.7909168 -47.50536177 74.79330515 -48.46247005 74.79576588 C-51.70038229 74.14616088 -52.89666219 72.84972192 -54.9296875 70.30078125 C-55.44726562 67.66625977 -55.44726562 67.66625977 -55.4609375 64.6796875 C-55.46923584 63.585354 -55.47753418 62.49102051 -55.48608398 61.36352539 C-55.46747314 60.20844482 -55.4488623 59.05336426 -55.4296875 57.86328125 C-55.41687744 56.68564209 -55.40406738 55.50800293 -55.39086914 54.29467773 C-54.9803681 36.70647451 -48.78092515 24.09582618 -36.03125 11.8203125 C-25.40452467 3.18777114 -13.482806 -0.012574 0 0 Z " fill="#000000" transform="translate(123.9296875,443.69921875)"/>
<path d="M0 0 C1.13180191 -0.00855011 1.13180191 -0.00855011 2.28646851 -0.01727295 C3.87472156 -0.02665599 5.4629935 -0.03323001 7.05126953 -0.03710938 C9.43428104 -0.04676697 11.81641051 -0.07783421 14.19921875 -0.109375 C32.24639314 -0.23536081 48.10849114 2.91798418 61.5859375 15.85546875 C73.68796618 28.48275909 78.20389762 41.74534254 78.1484375 59.015625 C78.16455078 60.03849609 78.18066406 61.06136719 78.19726562 62.11523438 C78.19791016 63.09943359 78.19855469 64.08363281 78.19921875 65.09765625 C78.20219971 65.98300049 78.20518066 66.86834473 78.20825195 67.78051758 C77.74615122 70.78735405 76.93889825 72.01467136 74.8359375 74.203125 C72.44491577 74.70369625 72.44491577 74.70369625 69.56005859 74.70433044 C68.46643005 74.71416458 67.37280151 74.72399872 66.24603271 74.73413086 C65.04593567 74.72446289 63.84583862 74.71479492 62.609375 74.70483398 C61.34579163 74.71023697 60.08220825 74.71563995 58.78033447 74.72120667 C55.31330494 74.73518254 51.84677047 74.72397713 48.37976837 74.70749545 C44.75366311 74.69365749 41.12758697 74.70010359 37.50146484 74.70362854 C31.41170257 74.70633167 25.32213728 74.69284639 19.23242188 74.66967773 C12.18922655 74.6430672 5.14636062 74.64132042 -1.89686775 74.6530661 C-8.66881657 74.66384086 -15.4406461 74.65765923 -22.21258545 74.64351082 C-25.09611832 74.63774834 -27.97956398 74.63783571 -30.86309814 74.64257622 C-34.88808161 74.64822936 -38.91257204 74.62903944 -42.9375 74.60717773 C-44.13759705 74.61167938 -45.33769409 74.61618103 -46.57415771 74.62081909 C-48.21460052 74.60596214 -48.21460052 74.60596214 -49.88818359 74.59080505 C-51.3161879 74.58716021 -51.3161879 74.58716021 -52.77304077 74.58344173 C-55.61370944 74.131604 -56.46966552 73.48925143 -58.1640625 71.203125 C-62.34082936 58.67282443 -58.87417891 41.70300901 -53.6640625 30.078125 C-46.07517817 15.9925531 -34.57538036 7.45180452 -19.69140625 2.18359375 C-13.19610102 0.37814346 -6.71298326 0.04062582 0 0 Z " fill="#000000" transform="translate(284.1640625,155.796875)"/>
<path d="M0 0 C0.86625 0.66 1.7325 1.32 2.625 2 C3.45 2.556875 4.275 3.11375 5.125 3.6875 C12.3423009 10.36350334 17.13495866 20.04518249 17.828125 29.8828125 C17.98720966 40.88616807 16.02218626 49.01972276 9.625 58 C9.0475 58.86625 8.47 59.7325 7.875 60.625 C-0.06851405 69.00982039 -10.45454624 73.15252169 -21.875 73.5 C-33.17419207 73.15621119 -43.30720339 69.15343083 -51.3125 61.03515625 C-59.32083901 51.49073497 -62.4857455 41.42092538 -61.85546875 29.125 C-60.89690255 18.63630589 -55.30053515 9.01650419 -47.3125 2.25390625 C-32.67690517 -8.22622505 -15.52269477 -9.19863394 0 0 Z " fill="#000000" transform="translate(472.375,362)"/>
<path d="M0 0 C0.74290283 0.00161133 1.48580566 0.00322266 2.2512207 0.00488281 C11.98982309 0.22019384 20.79090417 3.38679011 27.74609375 10.3828125 C37.14905661 20.56216679 40.48529434 30.22456413 40.125 44.07421875 C39.52253862 53.84054808 34.52635899 62.4891241 27.75 69.375 C19.39022154 76.57504041 8.83328429 80.19036504 -2.16796875 79.7578125 C-14.83099354 78.18496531 -23.64275195 73.1171127 -31.71484375 63.4453125 C-38.41253502 54.41280265 -40.15184905 44.42622969 -39.25 33.375 C-37.280111 22.18470619 -31.37773654 13.03434086 -22.25 6.375 C-15.32624149 1.63534557 -8.26025426 -0.01877971 0 0 Z " fill="#000000" transform="translate(293.25,68.625)"/>
<path d="M0 0 C9.21134058 7.68248738 15.11751752 16.68333064 16.625 28.8125 C17.19274959 40.7868549 13.56077102 50.8750917 5.9375 60.0625 C1.99280805 64.25882333 -2.06091885 66.94111518 -7.3125 69.25 C-7.99828125 69.56839844 -8.6840625 69.88679688 -9.390625 70.21484375 C-18.32005633 73.80315226 -29.00381125 73.46571485 -38.01171875 70.28125 C-48.05607434 65.77919588 -55.67153869 58.47338225 -60.25 48.4375 C-64.21890728 37.88503369 -64.22729248 27.74377391 -60.15625 17.27734375 C-55.940805 8.01507432 -49.81659956 0.05532838 -40.25390625 -4.04296875 C-26.87745036 -8.91447482 -11.90707878 -8.36466571 0 0 Z " fill="#000000" transform="translate(160.3125,362.75)"/>
<path d="M0 0 C24.07842787 14.37874912 43.28017003 39.52506482 56 64 C56.3295166 64.62777344 56.6590332 65.25554687 56.99853516 65.90234375 C68.28601359 87.71076692 75.10255769 112.41008075 76 137 C76.06316406 138.05832031 76.12632812 139.11664063 76.19140625 140.20703125 C76.4853247 148.04801694 76.4853247 148.04801694 74.375 152.1875 C71.43125165 154.43404479 69.70430594 155 66 155 C62.47093933 153.39588152 61.17227092 152.25840638 59 149 C58.66870117 146.72949219 58.66870117 146.72949219 58.54296875 144.046875 C58.48536377 143.04672363 58.42775879 142.04657227 58.3684082 141.01611328 C58.3087085 139.9382959 58.24900879 138.86047852 58.1875 137.75 C55.90364383 104.71641884 44.8096243 73.02165377 24 47 C23.53480957 46.41669922 23.06961914 45.83339844 22.59033203 45.23242188 C13.39579506 33.84139511 3.3899681 23.94718149 -8.8203125 15.75390625 C-11.10144128 13.91837431 -12.05996541 12.75027262 -13 10 C-12.68041237 3.92783505 -12.68041237 3.92783505 -10.625 1.125 C-6.92357656 -1.43752392 -4.190392 -1.06184223 0 0 Z " fill="#000000" transform="translate(396,175)"/>
<path d="M0 0 C2.4375 1 2.4375 1 4 3 C4.96237632 5.7445547 5.5524322 8.12735256 5 11 C2.94140625 13.3515625 2.94140625 13.3515625 0 16 C-1.12814865 17.03065432 -2.25572133 18.06193935 -3.3828125 19.09375 C-3.98714111 19.64216553 -4.59146973 20.19058105 -5.21411133 20.75561523 C-38.02501286 50.70756253 -54.77683283 89.69088208 -57.92480469 133.69213867 C-58.02438477 134.97064697 -58.12396484 136.24915527 -58.2265625 137.56640625 C-58.30471191 138.71052979 -58.38286133 139.85465332 -58.46337891 141.03344727 C-59.04256623 144.23531497 -59.70837232 145.71678505 -62 148 C-65.97344161 149.10373378 -68.08999772 149.41543583 -71.875 147.6875 C-74 146 -74 146 -75 144 C-78.36714437 103.35448607 -62.40151162 60.38773541 -37 29 C-33.17991378 24.49581798 -29.12427367 20.22477144 -25 16 C-24.46487793 15.44973145 -23.92975586 14.89946289 -23.37841797 14.33251953 C-21.77950598 12.69438805 -20.17359473 11.063647 -18.5625 9.4375 C-18.07861816 8.94878418 -17.59473633 8.46006836 -17.09619141 7.95654297 C-8.18666376 -0.90962931 -8.18666376 -0.90962931 0 0 Z " fill="#000000" transform="translate(191,181)"/>
<path d="M0 0 C28.05619857 7.27001759 56.23585756 6.6567886 84.20898438 -0.64379883 C88.44159229 -1.71049666 92.48181141 -2.4936365 96.84570312 -2.76489258 C99.84570312 -0.76489258 99.84570312 -0.76489258 101.84570312 2.23510742 C102.34767827 5.81168031 102.46629053 8.08352446 100.73632812 11.29370117 C96.34969625 15.79815581 88.81516659 16.73680061 82.84570312 18.23510742 C82.04648437 18.43700684 81.24726563 18.63890625 80.42382812 18.84692383 C51.61528628 25.74897031 19.64069393 23.99938373 -8.77929688 16.29760742 C-9.67575928 16.05703613 -10.57222168 15.81646484 -11.49584961 15.56860352 C-17.57913555 13.78521437 -17.57913555 13.78521437 -20.21679688 11.26245117 C-21.66658675 8.12728057 -21.51838968 5.63330694 -21.15429688 2.23510742 C-16.71025049 -5.80650032 -7.25423607 -1.88133561 0 0 Z " fill="#000000" transform="translate(253.154296875,476.764892578125)"/>
</svg>
